<svg width="32" height="31" viewBox="0 0 32 31" fill="none" xmlns="http://www.w3.org/2000/svg">
<path d="M18.2224 16.6226C19.5679 12.1377 16.6866 9.80503 13.1873 10.0128C13.0294 10.0221 12.9529 10.2052 13.0522 10.3283L15.3002 13.1152C15.3146 13.133 15.3224 13.1551 15.3224 13.178V15.2987C15.3224 15.394 15.2551 15.4761 15.1616 15.4948L12.4749 16.0322C12.4421 16.0387 12.4083 16.0286 12.3848 16.0048C11.9894 15.6051 10.7798 14.3296 9.88593 13.4228C9.77092 13.3062 9.57355 13.3748 9.55512 13.5376C8.91415 19.1982 14.025 19.6988 16.4824 18.9426L20 23L21.3853 21.6147C21.4613 21.5387 21.5245 21.451 21.5726 21.3549L22 20.5C21.8067 20.3067 21.4704 19.8706 18.2224 16.6226Z" fill="#FF0000"/>
<path d="M22.5 21C22.3067 20.8067 21.4704 19.8706 18.2224 16.6226C19.5679 12.1377 16.6866 9.80503 13.1873 10.0128C13.0294 10.0221 12.9529 10.2052 13.0522 10.3283L15.3002 13.1152C15.3146 13.133 15.3224 13.1551 15.3224 13.178V15.2987C15.3224 15.394 15.2551 15.4761 15.1616 15.4948L12.4749 16.0322C12.4421 16.0387 12.4083 16.0286 12.3848 16.0048C11.9894 15.6051 10.7798 14.3296 9.88593 13.4228C9.77092 13.3062 9.57355 13.3748 9.55512 13.5376C8.91415 19.1982 14.025 19.6988 16.4824 18.9426L20 23" stroke="black"/>
<path d="M27.8976 19.2126L27.9802 18.9453L28.2513 18.8759L30.9174 18.193V12.8077L28.2521 12.1249L27.9809 12.0554L27.8984 11.788C27.6693 11.0459 27.3728 10.3297 27.0153 9.65137L26.8849 9.40398L27.0274 9.16338L28.4293 6.79701L24.6212 2.98894L22.2548 4.39082L22.0144 4.53328L21.7671 4.40307C21.0878 4.04542 20.3714 3.74891 19.6301 3.51979L19.3627 3.43718L19.2933 3.16614L18.6105 0.5H13.2252L12.5423 3.16537L12.4729 3.43648L12.2055 3.51904C11.4633 3.74814 10.7471 4.04462 10.0688 4.40216L9.82141 4.53256L9.58081 4.39002L7.21444 2.98814L3.40637 6.79621L4.80825 9.16258L4.95071 9.40305L4.8205 9.65036C4.46285 10.3297 4.16634 11.046 3.93722 11.7874L3.85461 12.0547L3.58357 12.1241L0.917428 12.807V18.1923L3.5828 18.8751L3.85391 18.9446L3.93646 19.212C4.16557 19.9541 4.46204 20.6703 4.81959 21.3486L4.94999 21.596L4.80745 21.8366L3.40557 24.203L7.21364 28.0111L9.58001 26.6092L9.82048 26.4667L10.0678 26.5969C10.7471 26.9546 11.4634 27.2511 12.2048 27.4802L12.4721 27.5628L12.5415 27.8339L13.2244 30.5H18.6097L19.2925 27.8346L19.362 27.5635L19.6294 27.481C20.3715 27.2519 21.0877 26.9554 21.7661 26.5978L22.0135 26.4674L22.254 26.61L24.6204 28.0119L28.4285 24.2038L27.0266 21.8374L26.8841 21.5969L27.0144 21.3496C27.372 20.6703 27.6685 19.954 27.8976 19.2126ZM7 15.5C7 10.7239 10.7239 7 15.5 7C20.2719 7 24 10.6178 24 15.5C24 20.2761 20.2761 24 15.5 24C10.7239 24 7 20.2761 7 15.5Z" stroke="black"/>
</svg>
