<svg width="30" height="30" viewBox="0 0 30 30" fill="none" xmlns="http://www.w3.org/2000/svg">
<path d="M26.1292 16.9392C26.1313 16.7627 26.0368 16.5992 25.8825 16.5125L18.1406 12.1576C17.996 12.0768 17.8212 12.0749 17.6747 12.1529L15.0002 13.5861L12.3259 12.1534C12.1794 12.0754 12.0041 12.0768 11.86 12.1581L4.11802 16.5129C3.96374 16.5992 3.86923 16.7631 3.87112 16.9392C3.87325 17.1154 3.97083 17.2775 4.12629 17.3607L6.04004 18.3861L4.12629 19.4114C3.97083 19.4946 3.87325 19.6562 3.87112 19.8329C3.86923 20.0094 3.96374 20.1729 4.11802 20.2596L6.77435 21.7538V25.1602C6.77435 25.3348 6.86885 25.496 7.02124 25.5822L14.7632 29.9371C14.8367 29.9782 14.9184 29.999 15.0002 29.999C15.0819 29.999 15.1634 29.9772 15.2369 29.9361L15.2374 29.9371L22.9793 25.5822C23.1317 25.496 23.226 25.3348 23.226 25.1602V21.7538L25.8825 20.2596C26.0363 20.1729 26.1313 20.0094 26.1292 19.8329C26.1273 19.6562 26.0295 19.4946 25.8743 19.4114L23.9605 18.3861L25.8743 17.3607C26.0295 17.2775 26.1273 17.1159 26.1292 16.9392ZM14.5163 20.5224L13.3265 21.1915L8.08964 18.3861L14.5163 14.9427V20.5224ZM15.0002 21.3604L15.6626 21.733L15.0002 22.0881L14.3379 21.733L15.0002 21.3604ZM16.6739 21.1915L15.484 20.5224V14.9427L21.9109 18.3861L16.6739 21.1915ZM5.36054 16.9243L12.1028 13.1318L13.9759 14.1352L7.06472 17.837L5.36054 16.9243ZM7.06472 18.9351L13.9755 22.6374L12.1024 23.6408L5.36006 19.8483L7.06472 18.9351ZM7.74209 24.8772V22.2981L11.86 24.6145C11.9334 24.6556 12.0152 24.6764 12.0969 24.6764C12.1754 24.6764 12.2538 24.657 12.3259 24.6187L14.5163 23.4454V28.6877L7.74209 24.8772ZM22.2582 24.8772L15.484 28.6877V23.4454L17.6747 24.6187C17.7467 24.657 17.8252 24.6764 17.9034 24.6764C17.9851 24.6764 18.0671 24.6556 18.1406 24.6145L22.2582 22.2981V24.8772ZM24.64 19.8478L17.8977 23.6404L16.0246 22.6369L22.9358 18.9351L24.64 19.8478ZM22.9358 17.837L16.0251 14.1347L17.8982 13.1313L24.6405 16.9238L22.9358 17.837Z" fill="#B9BEC1"/>
<path d="M14.9999 8.22537C14.4662 8.22537 14.0322 7.79135 14.0322 7.25762H13.0645C13.0645 8.15661 13.6835 8.90817 14.5161 9.12435V10.1608H15.4838V9.12435C16.3166 8.90817 16.9354 8.15661 16.9354 7.25762C16.9354 6.19018 16.0674 5.32214 14.9999 5.32214C14.4662 5.32214 14.0322 4.88812 14.0322 4.3544C14.0322 3.82067 14.4662 3.38666 14.9999 3.38666C15.5337 3.38666 15.9677 3.82067 15.9677 4.3544H16.9354C16.9354 3.45541 16.3166 2.70385 15.4838 2.48767V1.45117H14.5161V2.48767C13.6835 2.70385 13.0645 3.45541 13.0645 4.3544C13.0645 5.42184 13.9325 6.28988 14.9999 6.28988C15.5337 6.28988 15.9677 6.7239 15.9677 7.25762C15.9677 7.79135 15.5337 8.22537 14.9999 8.22537Z" fill="#B9BEC1"/>
<path d="M14.9998 11.6129C18.2017 11.6129 20.8063 9.00832 20.8063 5.80645C20.8063 2.60459 18.2017 0 14.9998 0C11.7982 0 9.19336 2.60459 9.19336 5.80645C9.19336 9.00832 11.7982 11.6129 14.9998 11.6129ZM14.9998 0.967742C17.668 0.967742 19.8385 3.13831 19.8385 5.80645C19.8385 8.47459 17.668 10.6452 14.9998 10.6452C12.3319 10.6452 10.1611 8.47459 10.1611 5.80645C10.1611 3.13831 12.3319 0.967742 14.9998 0.967742Z" fill="#B9BEC1"/>
<path d="M27.0966 7.25876H25.6449V6.29102H24.6772V7.25876H23.7095C23.5141 7.25876 23.3369 7.37689 23.2624 7.5574C23.1875 7.73838 23.2291 7.94629 23.3673 8.08474L25.4448 10.162H23.2256V11.1297H24.6772V12.0975H25.6449V11.1297H26.6127C26.8083 11.1297 26.9853 11.0116 27.0599 10.8311C27.1348 10.6501 27.0932 10.4422 26.9548 10.3037L24.8776 8.2265H27.0966V7.25876Z" fill="#B9BEC1"/>
<path d="M4.35493 12.0975H5.32268V11.1297H6.29042C6.48604 11.1297 6.66301 11.0116 6.73767 10.8311C6.81256 10.6501 6.77098 10.4422 6.63253 10.3037L4.55529 8.2265H6.77429V7.25876H5.32268V6.29102H4.35493V7.25876H3.38719C3.1918 7.25876 3.0146 7.37689 2.94018 7.5574C2.86528 7.73838 2.90686 7.94629 3.04508 8.08474L5.12256 10.162H2.90332V11.1297H4.35493V12.0975Z" fill="#B9BEC1"/>
</svg>
