<svg width="30" height="30" viewBox="0 0 30 30" fill="none" xmlns="http://www.w3.org/2000/svg">
<path d="M24.5934 15.5344V3.32619H19.5295V1H18.3407V3.32619H13.3968V1H12.2023V3.32619H7.25842V1H6.06389V3.32619H1V23.6446H16.2717C17.0604 26.388 19.5638 28.4113 22.5072 28.4113C26.0794 28.4113 29 25.4335 29 21.7985C29.0057 18.9008 27.1539 16.426 24.5934 15.5344ZM2.19453 4.515H6.06389V7.07552H7.2527V4.515H12.2023V7.07552H13.3911V4.515H18.335V7.07552H19.5238V4.515H23.4046V9.99612H2.19453V4.515ZM16.0545 22.4558H2.19453V22.4501V11.1906H23.4046V15.2486C23.1131 15.2086 22.8159 15.1857 22.513 15.1857C18.9408 15.1857 16.0202 18.1635 16.0202 21.7985C16.0202 22.0214 16.0316 22.2386 16.0545 22.4558ZM22.513 27.2168C19.5924 27.2168 17.209 24.7763 17.209 21.7928C17.209 18.8151 19.5924 16.3688 22.513 16.3688C25.4335 16.3688 27.8169 18.8093 27.8169 21.7928C27.8169 24.7763 25.4278 27.2168 22.513 27.2168Z" fill="#B9BEC1"/>
<path d="M21.9129 20.9647H20.0039V22.1535H23.1074V17.4668H21.9129V20.9647Z" fill="#B9BEC1"/>
</svg>
