<svg width="18" height="18" viewBox="0 0 18 18" fill="none" xmlns="http://www.w3.org/2000/svg">
<g clip-path="url(#clip0)">
<path d="M14.0844 11.1916C13.6868 10.7078 12.9032 10.6312 12.4194 11.0289L10.9141 12.2661C10.6991 12.4429 9.79622 11.5636 9.3006 11.0702C8.39772 10.1909 7.55817 9.1695 6.95869 8.221C6.65896 7.74674 6.28042 7.06703 6.49545 6.89028L8.00069 5.65305C8.26948 5.43211 8.39614 5.14785 8.42485 4.85401C8.45357 4.56018 8.34015 4.20301 8.1634 3.98798L5.37963 0.601202C4.98195 0.117377 4.19839 0.040803 3.71456 0.438484L2.15557 1.7199C2.04805 1.80828 -0.662677 4.75699 3.76781 11.0239C3.76781 11.0239 4.06754 11.4982 4.95128 12.5733C5.83502 13.6485 6.28646 14.0881 6.28646 14.0881C10.5512 18.5096 13.9925 18.2031 15.0677 17.3194L16.5729 16.0822C17.1105 15.6403 17.1333 14.9009 16.7356 14.4171L14.0844 11.1916V11.1916ZM3.12178 2.45705L4.46574 1.35238L7.16114 4.63164L5.81718 5.73631L3.12178 2.45705ZM14.1111 16.4843C13.3872 16.8091 10.7927 17.05 7.20035 13.337C7.20035 13.337 6.83728 13.0048 5.86517 11.8222C4.89306 10.6395 4.6817 10.2727 4.6817 10.2727C1.64605 5.92198 2.47301 3.53077 2.88761 2.82968L5.53882 6.05519C4.7133 6.91388 5.52413 8.22913 5.95643 8.86466C6.64427 9.92068 7.52801 10.9958 8.47508 11.9289C9.51052 12.9694 10.5018 13.9562 11.504 13.3126L14.1111 16.4843ZM14.4336 16.2192L11.8266 13.0474L13.1705 11.9428C13.1705 11.9428 14.8938 14.0394 15.7776 15.1145L14.4336 16.2192Z" fill="#585858"/>
</g>
<defs>
<clipPath id="clip0">
<rect width="18" height="18" fill="white"/>
</clipPath>
</defs>
</svg>
