<svg width="20" height="22" viewBox="0 0 20 22" fill="none" xmlns="http://www.w3.org/2000/svg">
<g clip-path="url(#clip0)">
<path d="M1.38789 11.0214C1.38789 13.8487 2.79297 16.3452 4.94141 17.8577C5.31953 18.1241 5.34102 18.6784 4.97578 18.962L4.96719 18.9706C4.73086 19.1597 4.3957 19.1683 4.15078 18.9964C1.64141 17.2347 0 14.3171 0 11.0214C0 5.67178 4.43008 1.32764 9.7668 1.28467V2.67256C5.19492 2.71553 1.38789 6.43662 1.38789 11.0214Z" fill="white"/>
<path d="M10.0203 0.0428546L12.5727 1.78739C12.7102 1.88192 12.7102 2.08387 12.5727 2.1741L10.0203 3.91864C9.86563 4.02606 9.65079 3.91434 9.65079 3.72528V0.236214C9.65508 0.0471515 9.86563 -0.0645673 10.0203 0.0428546Z" fill="white"/>
<path d="M18.2789 10.9786C18.2789 8.15128 16.8738 5.6548 14.7254 4.1423C14.3473 3.87589 14.3258 3.3216 14.691 3.038L14.6996 3.02941C14.9359 2.84035 15.2711 2.83175 15.516 3.00363C18.0254 4.76535 19.6625 7.67863 19.6625 10.9786C19.6625 16.3282 15.241 20.6724 9.9043 20.7153V19.3275C14.4805 19.2845 18.2789 15.5634 18.2789 10.9786Z" fill="white"/>
<path d="M9.6465 21.9567L7.09415 20.2122C6.95665 20.1177 6.95665 19.9157 7.09415 19.8255L9.6465 18.0809C9.80119 17.9735 10.016 18.0852 10.016 18.2743V21.7634C10.0117 21.9524 9.80119 22.0642 9.6465 21.9567Z" fill="white"/>
</g>
<defs>
<clipPath id="clip0">
<rect width="19.6668" height="22" fill="white"/>
</clipPath>
</defs>
</svg>
