<svg width="24" height="24" viewBox="0 0 24 24" fill="none" xmlns="http://www.w3.org/2000/svg">
<rect width="24" height="24" fill="white"/>
<path d="M14.4359 19.6872L14.4358 19.6872C12.4636 18.9433 10.3318 17.4801 8.42618 15.5744C6.52057 13.6688 5.05738 11.5365 4.31348 9.56379L14.4359 19.6872ZM14.4359 19.6872C15.3345 20.0259 16.1631 20.2 16.8599 20.2C17.5507 20.2 18.1373 20.0284 18.5199 19.6464L18.52 19.6463C18.5962 19.5701 18.6772 19.493 18.7624 19.4119C18.7808 19.3945 18.7993 19.3768 18.818 19.359L18.8246 19.3528C19.1381 19.0552 19.4892 18.7219 19.7557 18.3462C20.0263 17.9646 20.221 17.5241 20.2 17.0124L20.2 17.0124C20.1707 16.3035 19.7318 15.651 18.9425 15.0166C17.7936 14.0932 16.9644 13.7963 16.2742 13.906C15.6044 14.0124 15.1259 14.4981 14.6745 14.9565L14.6528 14.9785L14.6524 14.9789L14.4839 15.149C14.4838 15.1491 14.4837 15.1491 14.4837 15.1492C14.4619 15.1708 14.424 15.1901 14.3487 15.1904C14.2708 15.1906 14.1709 15.1698 14.0543 15.1286C13.8218 15.0463 13.5696 14.8999 13.3812 14.7776C12.7887 14.3922 12.0371 13.7481 11.1443 12.8558M14.4359 19.6872L8.9849 5.05899M8.9849 5.05899L8.98504 5.05916C9.9088 6.20841 10.2052 7.03781 10.0947 7.72836C9.98754 8.39748 9.5019 8.87582 9.0436 9.32722C9.03561 9.33509 9.02762 9.34296 9.01964 9.35082C9.01962 9.35084 9.0196 9.35086 9.01958 9.35089L8.85164 9.51668L8.85163 9.51669C8.85153 9.51679 8.85142 9.5169 8.8513 9.51702C8.8467 9.52167 8.82061 9.54984 8.81644 9.63141C8.81187 9.7209 8.83394 9.87847 8.95066 10.1324C9.1852 10.6425 9.77695 11.4887 11.1443 12.8558M8.9849 5.05899C8.34976 4.27057 7.69735 3.83114 6.98906 3.80172C6.48506 3.77951 6.04493 3.97434 5.66267 4.24395C5.28266 4.51198 4.94378 4.86573 4.64363 5.18112L4.63656 5.18853C4.53867 5.29116 4.44532 5.38902 4.35377 5.48057C3.97041 5.86394 3.79909 6.4527 3.8 7.1451M8.9849 5.05899L3.8 7.1451M11.1443 12.8558L11.0029 12.9972M11.1443 12.8558L11.0029 12.9972M11.0029 12.9972C11.8995 13.8933 12.6626 14.5488 13.2724 14.9454L8.71022 9.37526C8.55415 9.53133 8.25869 10.2536 11.0029 12.9972ZM5.3236 5.82711L5.32329 5.82743C5.31133 5.83995 5.29937 5.85248 5.28742 5.865C5.19643 5.96029 5.10596 6.05506 5.01711 6.14391L5.01703 6.14399C4.8312 6.32962 4.71909 6.70436 4.74079 7.26267C4.76207 7.81018 4.91097 8.49073 5.19091 9.23311C5.88336 11.0689 7.26538 13.0875 9.08951 14.9116C10.9136 16.7358 12.9317 18.1173 14.767 18.8097L14.767 18.8097C15.5093 19.0899 16.1898 19.2387 16.7374 19.2597C17.2956 19.2811 17.6706 19.1687 17.8566 18.9825L17.8571 18.982C17.9574 18.8823 18.0638 18.7808 18.1714 18.6786C18.4508 18.413 18.7327 18.1445 18.9433 17.8634C19.1542 17.5817 19.2734 17.3133 19.2627 17.0498C19.2475 16.6858 18.976 16.2461 18.3546 15.7472L18.3545 15.7471C17.4107 14.9889 16.8622 14.7931 16.4709 14.8384C16.2776 14.8608 16.1028 14.944 15.9179 15.0823C15.7296 15.2233 15.5428 15.4118 15.3203 15.6371L15.3201 15.6373L15.1479 15.8111L15.1476 15.8114C14.8871 16.0733 14.546 16.1677 14.1564 16.115C13.7759 16.0635 13.3448 15.8723 12.87 15.5635C12.2126 15.1359 11.4079 14.445 10.481 13.5186L10.4809 13.5186C9.33953 12.3772 8.56993 11.442 8.17753 10.6918C7.98107 10.3162 7.87113 9.97217 7.86693 9.66217C7.86261 9.34428 7.97006 9.07068 8.18825 8.85232L8.18897 8.8516L8.36065 8.68154L8.3611 8.68109C8.5871 8.45864 8.77623 8.27183 8.91758 8.0834C9.05632 7.89846 9.13978 7.72351 9.16229 7.53013C9.20786 7.13863 9.01204 6.58998 8.25359 5.64624L5.3236 5.82711ZM5.3236 5.82711C5.58303 5.55437 5.84565 5.27888 6.12038 5.07M5.3236 5.82711L6.12038 5.07M3.8 7.1451C3.80092 7.84074 3.97494 8.66746 4.31344 9.56369L3.8 7.1451ZM6.12038 5.07C6.39581 4.8606 6.65896 4.73756 6.91647 4.73756M6.12038 5.07L6.91647 4.73756M6.91647 4.73756C6.92538 4.73756 6.93601 4.73793 6.95031 4.73847M6.91647 4.73756L6.95031 4.73847M6.95031 4.73847C7.31449 4.75421 7.75411 5.02588 8.25348 5.64611L6.95031 4.73847Z" fill="#585858" stroke="#585858" stroke-width="0.4"/>
</svg>
