<svg width="25" height="25" viewBox="0 0 25 25" fill="none" xmlns="http://www.w3.org/2000/svg">
<path d="M12.5 0C9.33377 0 6.03562 1.18421 3.66095 3.68421C-1.22032 8.55263 -1.22032 16.4474 3.66095 21.3158C6.16755 23.8158 9.33377 25 12.5 25C15.6662 25 18.9644 23.8158 21.3391 21.3158C26.2203 16.4474 26.2203 8.55263 21.3391 3.68421C18.9644 1.18421 15.6662 0 12.5 0ZM20.0198 20C17.909 22.1053 15.2704 23.0263 12.5 23.0263C9.72955 23.0263 7.09103 21.9737 4.98021 19.8684C4.45251 19.3421 4.05673 18.8158 3.66095 18.1579C0.890502 14.0789 1.41821 8.42105 4.98021 4.86842C7.09103 2.89474 9.72955 1.97368 12.5 1.97368C15.2704 1.97368 17.909 3.02632 20.0198 5.13158C24.1095 9.21053 24.1095 15.7895 20.0198 20ZM5.77177 12.3684C5.50792 12.1053 5.50792 11.7105 5.77177 11.3158C6.03562 11.0526 6.4314 11.0526 6.82718 11.3158C7.61873 11.9737 8.41029 11.3158 8.41029 11.3158C8.67414 11.0526 9.06992 11.0526 9.33377 11.3158C9.33377 11.3158 9.33377 11.3158 9.4657 11.4474C9.72955 11.7105 9.72955 12.2368 9.4657 12.5C8.67414 12.8947 7.22296 13.6842 5.77177 12.3684ZM19.2282 11.3158C19.4921 11.5789 19.4921 12.1053 19.2282 12.3684C18.5686 12.8947 17.1174 13.6842 15.6662 12.3684C15.4024 12.1053 15.4024 11.7105 15.6662 11.3158C15.9301 11.0526 16.3259 11.0526 16.7216 11.3158C17.5132 11.9737 18.3047 11.3158 18.3047 11.3158C18.4367 11.0526 18.8325 11.0526 19.2282 11.3158ZM18.1728 18.6842C18.3047 19.0789 18.1728 19.4737 17.777 19.6053C17.3813 19.7368 16.9855 19.6053 16.8536 19.2105C16.1939 17.6316 14.6108 16.5789 12.7639 16.5789C10.9169 16.5789 9.33377 17.6316 8.67414 19.2105C8.54222 19.4737 8.27836 19.6053 8.01451 19.6053C7.88259 19.6053 7.88259 19.6053 7.75066 19.6053C7.35488 19.4737 7.22296 19.0789 7.35488 18.6842C8.27836 16.5789 10.3892 15.2632 12.7639 15.2632C15.1385 15.2632 17.2493 16.5789 18.1728 18.6842Z" fill="#FF0000"/>
</svg>
