<svg width="28" height="28" viewBox="0 0 28 28" fill="none" xmlns="http://www.w3.org/2000/svg">
<path d="M6.99997 3.73242V5.13242H3.7333V25.6658H20.0666V20.0658L21.4666 18.6658V26.1324L20.0666 27.5324H3.26664L1.86664 26.1324V4.66576L3.26664 3.73242H6.99997Z" fill="#FF0000"/>
<path d="M19.6 5.13424H16.8V3.26758H20.0667L21.4667 4.66758V9.80091L19.6 12.6009V5.13424Z" fill="#FF0000"/>
<path d="M26.2312 8.07986C26.1652 7.83313 26.0069 7.62677 25.7856 7.49902L24.9809 7.03439C24.7596 6.90665 24.5017 6.87268 24.2548 6.9389C24.008 7.00491 23.8017 7.16321 23.6739 7.38452L23.1937 8.21616C22.9899 8.12045 22.7611 8.0993 22.5409 8.15826C22.2941 8.22449 22.0878 8.38278 21.96 8.6041L21.9297 8.65643V5.11328C21.9297 3.98236 21.0098 3.0625 19.8789 3.0625H16.8875C16.8207 2.59958 16.4225 2.24219 15.9414 2.24219H14.5469V1.23047C14.5469 0.552002 13.9949 0 13.3164 0H10.3086C9.63013 0 9.07813 0.552002 9.07813 1.23047V2.24219H7.68359C7.20252 2.24219 6.80411 2.59958 6.73746 3.0625H3.74609C2.61517 3.0625 1.69531 3.98236 1.69531 5.11328V25.9492C1.69531 27.0801 2.61517 28 3.74609 28H16.5455C16.772 28 16.9557 27.8165 16.9557 27.5898C16.9557 27.3632 16.772 27.1797 16.5455 27.1797H3.74609C3.06763 27.1797 2.51563 26.6277 2.51563 25.9492V5.11328C2.51563 4.43481 3.06763 3.88281 3.74609 3.88281H6.72656V5.87891C6.72656 6.40656 7.15595 6.83594 7.68359 6.83594H15.9414C16.4691 6.83594 16.8984 6.40656 16.8984 5.87891V5.49609H19.4961V12.8716L15.3225 20.1004C15.1717 20.3615 15.1034 20.6584 15.1249 20.9592L15.3078 23.5214C15.3238 23.7455 15.449 23.9474 15.6425 24.0614C15.7494 24.1242 15.8692 24.1561 15.9897 24.1561C16.0875 24.1561 16.1856 24.1349 16.277 24.0926L18.635 22.9991C18.9174 22.8681 19.149 22.6564 19.3045 22.3871L19.4961 22.0553V25.5664H4.12891V5.49609H5.22266C5.4491 5.49609 5.63281 5.31259 5.63281 5.08594C5.63281 4.85928 5.4491 4.67578 5.22266 4.67578H3.99219C3.61514 4.67578 3.30859 4.98233 3.30859 5.35938V25.7031C3.30859 26.0802 3.61514 26.3867 3.99219 26.3867H19.6328C20.0096 26.3867 20.3164 26.0802 20.3164 25.7031V20.6343L21.1094 19.2609V25.9492C21.1094 26.6277 20.5574 27.1797 19.8789 27.1797H18.4594C18.2329 27.1797 18.0492 27.3632 18.0492 27.5898C18.0492 27.8163 18.2329 28 18.4594 28H19.8789C21.0096 28 21.9297 27.0799 21.9297 25.9492V17.8401L25.39 11.8467L25.9366 10.8999C26.0644 10.6786 26.0983 10.4207 26.0321 10.174C25.9731 9.95377 25.8405 9.76642 25.6555 9.6376L26.1357 8.80597C26.2635 8.58466 26.2974 8.32681 26.2312 8.07986V8.07986ZM24.3842 7.79468C24.4218 7.72952 24.5053 7.70709 24.5707 7.74469L25.3754 8.20932C25.4179 8.23389 25.4335 8.27191 25.4391 8.29221C25.4444 8.31271 25.45 8.35309 25.4254 8.39581L24.9471 9.22403L23.9061 8.62311L24.3842 7.79468ZM22.6703 9.01425C22.6949 8.97174 22.7329 8.95615 22.7532 8.95081C22.7737 8.94504 22.8141 8.9397 22.8566 8.96426L25.1761 10.3035C25.2188 10.328 25.2344 10.3658 25.2398 10.3864C25.2453 10.4066 25.2507 10.4472 25.2261 10.4897L24.8845 11.0813L22.329 9.60577L22.6703 9.01425ZM9.89844 1.23047C9.89844 1.00424 10.0824 0.820312 10.3086 0.820312H13.3164C13.5426 0.820312 13.7266 1.00424 13.7266 1.23047V2.24219H9.89844V1.23047ZM16.0781 5.87891C16.0781 5.95432 16.0168 6.01562 15.9414 6.01562H7.68359C7.60819 6.01562 7.54688 5.95432 7.54688 5.87891V3.19922C7.54688 3.12381 7.60819 3.0625 7.68359 3.0625H15.9414C16.0168 3.0625 16.0781 3.12381 16.0781 3.19922V5.87891ZM19.6328 4.67578H16.8984V3.88281H19.8789C20.5574 3.88281 21.1094 4.43481 21.1094 5.11328V10.0775L20.3164 11.4508V5.35938C20.3164 4.98233 20.0099 4.67578 19.6328 4.67578ZM21.9188 10.3163L24.4744 11.7918L19.4461 20.5012L16.8903 19.0257L21.9188 10.3163ZM18.5942 21.9769C18.5235 22.0993 18.4182 22.1954 18.29 22.2548V22.255L16.1119 23.265L15.9431 20.9009C15.9333 20.7642 15.9645 20.6294 16.0331 20.5108L16.4802 19.736L19.036 21.2115L18.5942 21.9769Z" fill="black"/>
<path d="M5.93182 22.8828C6.00979 22.9523 6.1072 22.9862 6.20397 22.9862C6.31719 22.9862 6.42977 22.9397 6.51074 22.8484L7.324 21.9329L7.95355 22.6837C8.0798 22.8346 8.26501 22.9234 8.46154 22.9281C8.65829 22.9315 8.84713 22.8525 8.98022 22.7079L9.7373 21.8859L10.5764 22.8356C10.7266 23.0055 10.9857 23.0215 11.1553 22.8715C11.3252 22.7216 11.3412 22.4624 11.1912 22.2926L10.2517 21.2292C10.1237 21.0844 9.9396 21.0002 9.74649 20.9983C9.74414 20.998 9.74179 20.998 9.73944 20.998C9.54867 20.998 9.36581 21.0782 9.23657 21.2185L8.48226 22.0375L7.85079 21.2845C7.72305 21.1322 7.5357 21.0431 7.3366 21.0401C7.13751 21.0356 6.94802 21.1211 6.816 21.2698L5.89764 22.3037C5.74703 22.4731 5.76241 22.7325 5.93182 22.8828V22.8828Z" fill="black"/>
<path d="M18.0332 9.05078C18.0332 8.82413 17.8495 8.64062 17.623 8.64062H5.97461C5.74817 8.64062 5.56445 8.82413 5.56445 9.05078C5.56445 9.27744 5.74817 9.46094 5.97461 9.46094H17.623C17.8495 9.46094 18.0332 9.27744 18.0332 9.05078Z" fill="black"/>
<path d="M6.0293 11.6484H10.8965C11.1229 11.6484 11.3066 11.4649 11.3066 11.2383C11.3066 11.0116 11.1229 10.8281 10.8965 10.8281H6.0293C5.80286 10.8281 5.61914 11.0116 5.61914 11.2383C5.61914 11.4649 5.80286 11.6484 6.0293 11.6484Z" fill="black"/>
<path d="M15.1348 11.2383C15.1348 11.0116 14.951 10.8281 14.7246 10.8281H12.8105C12.5841 10.8281 12.4004 11.0116 12.4004 11.2383C12.4004 11.4649 12.5841 11.6484 12.8105 11.6484H14.7246C14.951 11.6484 15.1348 11.4649 15.1348 11.2383Z" fill="black"/>
<path d="M6.0293 13.8359H9.9668C10.1932 13.8359 10.377 13.6524 10.377 13.4258C10.377 13.1991 10.1932 13.0156 9.9668 13.0156H6.0293C5.80286 13.0156 5.61914 13.1991 5.61914 13.4258C5.61914 13.6524 5.80286 13.8359 6.0293 13.8359Z" fill="black"/>
<path d="M13.5762 13.0156H11.7168C11.4904 13.0156 11.3066 13.1991 11.3066 13.4258C11.3066 13.6524 11.4904 13.8359 11.7168 13.8359H13.5762C13.8026 13.8359 13.9863 13.6524 13.9863 13.4258C13.9863 13.1991 13.8026 13.0156 13.5762 13.0156Z" fill="black"/>
<path d="M6.0293 16.0234H8.87305C9.09949 16.0234 9.2832 15.8399 9.2832 15.6133C9.2832 15.3866 9.09949 15.2031 8.87305 15.2031H6.0293C5.80286 15.2031 5.61914 15.3866 5.61914 15.6133C5.61914 15.8399 5.80286 16.0234 6.0293 16.0234Z" fill="black"/>
<path d="M13.9863 15.6133C13.9863 15.3866 13.8026 15.2031 13.5762 15.2031H10.623C10.3966 15.2031 10.2129 15.3866 10.2129 15.6133C10.2129 15.8399 10.3966 16.0234 10.623 16.0234H13.5762C13.8026 16.0234 13.9863 15.8399 13.9863 15.6133Z" fill="black"/>
<path d="M6.0293 18.2109H8.87305C9.09949 18.2109 9.2832 18.0274 9.2832 17.8008C9.2832 17.5741 9.09949 17.3906 8.87305 17.3906H6.0293C5.80286 17.3906 5.61914 17.5741 5.61914 17.8008C5.61914 18.0274 5.80286 18.2109 6.0293 18.2109Z" fill="black"/>
</svg>
