<svg width="32" height="30" viewBox="0 0 32 30" fill="none" xmlns="http://www.w3.org/2000/svg">
<path d="M7.92382 11.087C8.199 11.064 8.4035 10.8224 8.38057 10.5472C8.35763 10.272 8.11596 10.0675 7.84077 10.0904L7.92382 11.087ZM5.44259 13.0976C5.46377 13.373 5.70414 13.579 5.97947 13.5578C6.25479 13.5366 6.46082 13.2963 6.43964 13.0209L5.44259 13.0976ZM7.50854 8.61768C7.78444 8.62918 8.01742 8.41484 8.02892 8.13893C8.04041 7.86303 7.82607 7.63005 7.55017 7.61855L7.50854 8.61768ZM2.79464 13.0831C2.80778 13.3589 3.04203 13.5719 3.31786 13.5587C3.59369 13.5456 3.80664 13.3113 3.79351 13.0355L2.79464 13.0831ZM7.84077 10.0904C7.39955 10.1272 6.76736 10.3198 6.25584 10.7896C5.72334 11.2786 5.36075 12.0337 5.44259 13.0976L6.43964 13.0209C6.38031 12.2496 6.63536 11.7988 6.93227 11.5261C7.25017 11.2341 7.65915 11.109 7.92382 11.087L7.84077 10.0904ZM7.55017 7.61855C6.71082 7.58358 5.48522 7.94027 4.48972 8.79818C3.47081 9.67627 2.69896 11.0738 2.79464 13.0831L3.79351 13.0355C3.71272 11.3389 4.35263 10.2364 5.14253 9.55569C5.95585 8.85479 6.93612 8.59383 7.50854 8.61768L7.55017 7.61855Z" fill="black"/>
<circle cx="23" cy="7" r="5" fill="#EF3829"/>
<path d="M23.0588 0C19.0681 0 15.8235 3.24458 15.8235 7.23529C15.8235 11.226 19.0681 14.4706 23.0588 14.4706C27.0495 14.4706 30.2941 11.226 30.2941 7.23529C30.2941 3.24458 27.0495 0 23.0588 0ZM20.7073 1.39901C20.2721 1.99253 19.947 2.69628 19.7153 3.38872C19.2942 3.23892 18.9041 3.05804 18.5537 2.8489C19.1585 2.22711 19.8905 1.72969 20.7073 1.39901ZM17.9404 3.58091C18.3926 3.86353 18.9013 4.10377 19.4581 4.29596C19.2744 5.06753 19.167 5.90129 19.1359 6.7633H16.7844C16.872 5.58192 17.2875 4.49097 17.9404 3.58091ZM17.9404 10.8897C17.2875 9.97962 16.872 8.88867 16.7844 7.70728H19.1331C19.1613 8.5693 19.2716 9.40306 19.4553 10.1746C18.9013 10.3668 18.3926 10.6071 17.9404 10.8897ZM18.5537 11.6217C18.9041 11.4125 19.2942 11.2345 19.7153 11.0819C19.947 11.7715 20.2721 12.4752 20.7073 13.0716C19.8905 12.7409 19.1585 12.2435 18.5537 11.6217ZM22.5868 13.439C21.6117 13.0801 20.956 11.7997 20.6197 10.8134C21.2358 10.6664 21.9 10.576 22.5868 10.5477V13.439ZM22.5868 9.60372C21.8124 9.63481 21.0634 9.73656 20.3625 9.90614C20.2042 9.21935 20.1081 8.47603 20.0799 7.70728H22.5868V9.60372ZM22.5868 6.7633H20.0799C20.1081 5.99173 20.2042 5.25124 20.3625 4.56445C21.0634 4.73403 21.8124 4.8386 22.5868 4.86687V6.7633ZM22.5868 3.92289C21.9 3.89462 21.2358 3.80418 20.6197 3.65722C20.956 2.67084 21.6117 1.39053 22.5868 1.03159V3.92289ZM28.1772 3.58091C28.8301 4.49097 29.2455 5.58192 29.3331 6.7633H26.9845C26.9562 5.90129 26.846 5.07036 26.6623 4.29596C27.2162 4.10377 27.725 3.86353 28.1772 3.58091ZM27.5639 2.8489C27.2134 3.05804 26.8234 3.2361 26.4023 3.38872C26.1705 2.6991 25.8455 1.99536 25.4103 1.39901C26.227 1.72969 26.9591 2.22711 27.5639 2.8489ZM23.5308 1.03159C24.5058 1.39053 25.1615 2.67084 25.4979 3.65722C24.8817 3.80418 24.2176 3.89462 23.5308 3.92289V1.03159ZM23.5308 4.86687C24.3052 4.83578 25.0541 4.73403 25.7551 4.56445C25.9133 5.25124 26.0094 5.99455 26.0377 6.7633H23.5308V4.86687ZM23.5308 7.70446H26.0377C26.0094 8.47603 25.9133 9.21935 25.7551 9.90896C25.0541 9.73938 24.3052 9.63481 23.5308 9.60655V7.70446ZM23.5308 13.439V10.5477C24.2176 10.576 24.8817 10.6664 25.4979 10.8134C25.1615 11.7997 24.5058 13.0829 23.5308 13.439ZM25.4103 13.0716C25.8455 12.4781 26.1705 11.7743 26.4023 11.0819C26.8234 11.2317 27.2134 11.4125 27.5639 11.6217C26.9591 12.2435 26.227 12.7409 25.4103 13.0716ZM28.1772 10.8897C27.725 10.6071 27.2162 10.3668 26.6623 10.1746C26.846 9.40306 26.9534 8.56648 26.9845 7.70446H29.3331C29.2455 8.88585 28.8301 9.97962 28.1772 10.8897Z" fill="black"/>
<path d="M5.77982 19.8275L5.77985 19.8275C7.47272 19.1889 9.30397 17.9322 10.9416 16.2943C12.5792 14.6566 13.8358 12.8247 14.4744 11.1312L5.77982 19.8275ZM5.77982 19.8275C5.00846 20.1183 4.29841 20.2672 3.70243 20.2672C3.11126 20.2672 2.61341 20.1203 2.29001 19.7974L2.28992 19.7974M5.77982 19.8275L2.28992 19.7974M10.4937 7.27742L10.4936 7.27755C9.7001 8.26489 9.45015 8.97198 9.54371 9.55653C9.6347 10.1249 10.0478 10.5319 10.4437 10.9219C10.4499 10.928 10.456 10.9341 10.4622 10.9401C10.4622 10.9401 10.4622 10.9401 10.4622 10.9402L10.6068 11.0829C10.6069 11.083 10.6069 11.0831 10.607 11.0831C10.6142 11.0904 10.6396 11.1194 10.6435 11.1961C10.6477 11.2778 10.6273 11.417 10.5261 11.6374C10.3226 12.0799 9.81135 12.8101 8.63466 13.9867L10.4937 7.27742ZM10.4937 7.27742C11.0384 6.60123 11.5943 6.22891 12.1944 6.204C12.6213 6.18518 12.9952 6.35011 13.3217 6.58044C13.6465 6.80958 13.9366 7.1123 14.195 7.38386L14.2012 7.39035C14.2854 7.47857 14.3658 7.56293 14.4447 7.64187C14.7687 7.9659 14.9154 8.46561 14.9146 9.05822M10.4937 7.27742L14.9146 9.05822M0.851256 17.5479L0.851254 17.548C0.833466 17.9816 0.998332 18.3559 1.2294 18.6817C1.45739 19.0032 1.75811 19.2887 2.02826 19.5451L2.03322 19.5498L0.851256 17.5479ZM0.851256 17.5479C0.876084 16.9473 1.24785 16.3913 1.92472 15.8473C2.9117 15.0539 3.61854 14.8035 4.20281 14.8964C4.77175 14.9868 5.17874 15.4 5.56878 15.796L5.58534 15.8128L5.58562 15.8131L5.73067 15.9595C5.73072 15.9596 5.73078 15.9596 5.73083 15.9597C5.75488 15.9837 5.79383 16.0014 5.86254 16.0016C5.93305 16.0018 6.02164 15.9831 6.12315 15.9472C6.32561 15.8755 6.54422 15.7485 6.70665 15.6431M0.851256 17.5479L6.70665 15.6431M2.28992 19.7974C2.22414 19.7316 2.15415 19.665 2.08076 19.5951M2.28992 19.7974L2.08076 19.5951M13.7608 10.8623C14.0022 10.2221 14.131 9.63427 14.1494 9.16025C14.1682 8.67813 14.0719 8.34776 13.9054 8.18139L13.9053 8.18133C13.8291 8.10509 13.7514 8.02376 13.6731 7.94175C13.6629 7.93098 13.6526 7.9202 13.6423 7.90942L13.642 7.90918C13.4191 7.67483 13.192 7.43645 12.954 7.25549C12.7155 7.07414 12.4844 6.965 12.2559 6.965C12.2477 6.965 12.2381 6.96533 12.2259 6.9658C11.9027 6.97974 11.5192 7.21993 11.0886 7.75485C10.4358 8.56718 10.2618 9.04555 10.3021 9.39204C10.322 9.5635 10.396 9.71764 10.5169 9.87871C10.6396 10.0424 10.8036 10.2043 10.9977 10.3954L10.9981 10.3957L11.1457 10.542L11.1463 10.5426C11.3296 10.726 11.4199 10.9556 11.4162 11.2234C11.4127 11.4853 11.3197 11.7777 11.1516 12.0993C10.8156 12.7416 10.1556 13.5441 9.17408 14.5257L9.17405 14.5257C8.37713 15.3223 7.68622 15.9154 7.12254 16.2821L7.04075 16.1563L7.12254 16.2821C6.71542 16.5469 6.34776 16.7094 6.02508 16.7531C5.69553 16.7977 5.40938 16.7178 5.19095 16.4983L5.19072 16.498L5.04258 16.3485L5.04243 16.3483C4.85135 16.1549 4.68951 15.9914 4.52591 15.8689C4.36493 15.7485 4.21092 15.6747 4.03957 15.6548C3.69329 15.6148 3.21516 15.7887 2.40291 16.4413L2.40287 16.4414C1.8669 16.8717 1.62689 17.2553 1.61348 17.5784C1.60399 17.8124 1.70991 18.0484 1.89258 18.2923C2.07503 18.536 2.31901 18.7683 2.55903 18.9964M13.7608 10.8623L13.9012 10.9153M13.7608 10.8623L13.9012 10.9153M13.7608 10.8623C13.1638 12.4453 11.9729 14.1845 10.4022 15.7554C8.83145 17.3262 7.0929 18.5168 5.51053 19.1139L5.51051 19.1139C4.8704 19.3555 4.28263 19.4842 3.80865 19.5024C3.32662 19.5209 2.99608 19.4243 2.82942 19.2575L2.82908 19.2571C2.743 19.1715 2.65158 19.0843 2.55903 18.9964M13.9012 10.9153C14.3919 9.61379 14.4354 8.49891 14.0114 8.07527L13.9012 10.9153ZM2.55903 18.9964L2.45571 19.1051M2.55903 18.9964C2.55904 18.9964 2.55904 18.9964 2.55905 18.9964L2.45571 19.1051M2.45571 19.1051C2.5483 19.1931 2.63858 19.2792 2.7233 19.3635L2.45571 19.1051ZM14.9146 9.05822C14.9139 9.65327 14.765 10.3618 14.4744 11.1312L14.9146 9.05822ZM6.70665 15.6431C7.21827 15.3102 7.86614 14.7548 8.63464 13.9867L6.70665 15.6431ZM2.08076 19.5951C2.06515 19.5802 2.04938 19.5652 2.03347 19.5501L2.08076 19.5951Z" fill="black" stroke="black" stroke-width="0.3"/>
<path d="M31.4062 15.5293H12.9505C12.7846 15.5293 12.647 15.6686 12.647 15.8365V27.8595C12.647 28.0275 12.7846 28.1667 12.9505 28.1667H20.7487V29.1704H18.9527C18.9527 29.3842 18.9527 29.4508 18.9527 29.6187C18.9527 29.7867 18.9527 29.805 18.9527 29.9999H25.4C25.4 29.7981 25.4 29.754 25.4 29.586C25.4 29.4181 25.4 29.4739 25.4 29.1704H23.6081V28.1667H31.4022C31.5681 28.1667 31.7057 28.0275 31.7057 27.8595V15.8365C31.7098 15.6686 31.5721 15.5293 31.4062 15.5293ZM30.7566 16.494V25.6587H13.6001V16.494H30.7566ZM22.6549 29.1704H21.7018V28.1667H22.6549V29.1704ZM13.6001 27.2987V26.6234H30.7566V27.2987H13.6001Z" fill="black"/>
<path d="M15.5 24V19.875V18.5H28.5V24H15.5Z" fill="#EF3829"/>
</svg>
