<svg width="21" height="20" viewBox="0 0 21 20" fill="none" xmlns="http://www.w3.org/2000/svg">
<path d="M3.93135 11.5529L9.40504 8.81271V7.19477H8.78781C8.48141 7.19477 8.18981 7.13196 7.92412 7.01757V7.88486L2.44969 10.6243V12.8015H3.92987V11.5514L3.93135 11.5529ZM18.5481 12.8037V10.6258L13.0737 7.88486V7.01906C12.8007 7.13588 12.5072 7.19589 12.2107 7.19551H11.5942V8.81346L17.0672 11.5544V12.8045H18.5473L18.5481 12.8037ZM11.2405 12.8037V7.19626H9.76028V12.8037H11.2405ZM19.5198 13.5514H16.0969C15.7043 13.5514 15.3279 13.7089 15.0503 13.9894C14.7727 14.2698 14.6167 14.6501 14.6167 15.0467V18.5047C14.6167 18.9013 14.7727 19.2816 15.0503 19.562C15.3279 19.8425 15.7043 20 16.0969 20H19.5198C19.9124 20 20.2889 19.8425 20.5665 19.562C20.8441 19.2816 21 18.9013 21 18.5047V15.0467C21 14.6501 20.8441 14.2698 20.5665 13.9894C20.2889 13.7089 19.9124 13.5514 19.5198 13.5514ZM4.90308 13.5514H1.48018C1.08761 13.5514 0.71112 13.7089 0.433533 13.9894C0.155947 14.2698 0 14.6501 0 15.0467V18.5047C0 18.9013 0.155947 19.2816 0.433533 19.562C0.71112 19.8425 1.08761 20 1.48018 20H4.90308C5.29565 20 5.67214 19.8425 5.94973 19.562C6.22731 19.2816 6.38326 18.9013 6.38326 18.5047V15.0467C6.38326 14.6501 6.22731 14.2698 5.94973 13.9894C5.67214 13.7089 5.29565 13.5514 4.90308 13.5514ZM8.78855 6.4486H12.2115C12.604 6.4486 12.9805 6.29105 13.2581 6.01063C13.5357 5.7302 13.6916 5.34986 13.6916 4.95327V1.49533C13.6916 1.09874 13.5357 0.718399 13.2581 0.437971C12.9805 0.157543 12.604 0 12.2115 0H8.78855C8.39598 0 8.01949 0.157543 7.7419 0.437971C7.46432 0.718399 7.30837 1.09874 7.30837 1.49533V4.95327C7.30837 5.34986 7.46432 5.7302 7.7419 6.01063C8.01949 6.29105 8.39598 6.4486 8.78855 6.4486ZM12.2115 13.5514H8.78855C8.39598 13.5514 8.01949 13.7089 7.7419 13.9894C7.46432 14.2698 7.30837 14.6501 7.30837 15.0467V18.5047C7.30837 18.9013 7.46432 19.2816 7.7419 19.562C8.01949 19.8425 8.39598 20 8.78855 20H12.2115C12.604 20 12.9805 19.8425 13.2581 19.562C13.5357 19.2816 13.6916 18.9013 13.6916 18.5047V15.0467C13.6916 14.6501 13.5357 14.2698 13.2581 13.9894C12.9805 13.7089 12.604 13.5514 12.2115 13.5514Z" fill="#DB554C"/>
</svg>
