<svg width="24" height="24" viewBox="0 0 24 24" fill="none" xmlns="http://www.w3.org/2000/svg">
<path d="M16.9977 15.6972H14.5746V13.2741C14.5746 13.0318 14.3785 12.8356 14.1361 12.8356C13.8938 12.8356 13.6977 13.0318 13.6977 13.2741V15.6972H11.2746C11.0323 15.6972 10.8361 15.8933 10.8361 16.1356C10.8361 16.378 11.0323 16.5741 11.2746 16.5741H13.6977V18.9972C13.6977 19.2395 13.8938 19.4356 14.1361 19.4356C14.3785 19.4356 14.5746 19.2395 14.5746 18.9972V16.5741H16.9977C17.24 16.5741 17.4361 16.378 17.4361 16.1356C17.4361 15.8933 17.24 15.6972 16.9977 15.6972Z" fill="#585858" stroke="#585858" stroke-width="0.4"/>
<path d="M8.40354 12.8361H3.79646C3.24676 12.8361 2.8 13.2829 2.8 13.8326V18.4397C2.8 18.9894 3.24676 19.4361 3.79646 19.4361H8.40354C8.95324 19.4361 9.4 18.9894 9.4 18.4397V13.8326C9.4 13.2829 8.95324 12.8361 8.40354 12.8361ZM8.52308 18.4397C8.52308 18.5054 8.4693 18.5592 8.40354 18.5592H3.79646C3.7307 18.5592 3.67692 18.5054 3.67692 18.4397V13.8326C3.67692 13.7668 3.7307 13.7131 3.79646 13.7131H8.40354C8.4693 13.7131 8.52308 13.7668 8.52308 13.8326V18.4397Z" fill="#585858" stroke="#585858" stroke-width="0.4"/>
<path d="M16.4397 4.8H11.8326C11.2829 4.8 10.8361 5.24676 10.8361 5.79646V10.4035C10.8361 10.9532 11.2829 11.4 11.8326 11.4H16.4397C16.9894 11.4 17.4361 10.9532 17.4361 10.4035V5.79646C17.4361 5.24676 16.9894 4.8 16.4397 4.8ZM16.5592 10.4035C16.5592 10.4693 16.5054 10.5231 16.4397 10.5231H11.8326C11.7668 10.5231 11.7131 10.4693 11.7131 10.4035V5.79646C11.7131 5.7307 11.7668 5.67692 11.8326 5.67692H16.4397C16.5054 5.67692 16.5592 5.73069 16.5592 5.79646V10.4035Z" fill="#585858" stroke="#585858" stroke-width="0.4"/>
<path d="M8.40354 4.8H3.79646C3.24676 4.8 2.8 5.24676 2.8 5.79646V10.4035C2.8 10.9532 3.24676 11.4 3.79646 11.4H8.40354C8.95324 11.4 9.4 10.9532 9.4 10.4035V5.79646C9.4 5.24676 8.95324 4.8 8.40354 4.8ZM8.52308 10.4035C8.52308 10.4693 8.4693 10.5231 8.40354 10.5231H3.79646C3.7307 10.5231 3.67692 10.4693 3.67692 10.4035V5.79646C3.67692 5.7307 3.7307 5.67692 3.79646 5.67692H8.40354C8.4693 5.67692 8.52308 5.7307 8.52308 5.79646V10.4035Z" fill="#585858" stroke="#585858" stroke-width="0.4"/>
</svg>
