<svg width="30" height="30" viewBox="0 0 30 30" fill="none" xmlns="http://www.w3.org/2000/svg">
<g clip-path="url(#clip0)">
<path d="M12.5 19L6 16.5V26L15 29L25.5 25.5V16L18 18.5L15 15L12.5 19Z" fill="#FF0000"/>
<path d="M26.3756 11.1328L29.8285 7.67988C29.9737 7.53463 30.0323 7.32393 29.9829 7.12459C29.9335 6.9252 29.7832 6.76629 29.5869 6.7057L21.1787 4.11059C20.4208 1.6742 18.168 0 15.5859 0C13.1857 0 11.039 1.46279 10.1506 3.66943L0.411472 6.70623C0.21571 6.76729 0.0660618 6.92631 0.0170189 7.12547C-0.0320241 7.32457 0.0265697 7.53492 0.171589 7.67994L3.71528 11.2236L1.48028 14.9487C1.38882 15.1011 1.37153 15.2868 1.43317 15.4535C1.49481 15.6202 1.62882 15.7499 1.79745 15.8061L5.03903 16.8865V25.8984C5.03903 26.1426 5.19055 26.3612 5.41925 26.447C7.4013 27.1902 14.7657 29.9522 14.8052 29.9662C14.9215 30.0071 15.0524 30.0127 15.1801 29.9714C15.1818 29.9708 15.1835 29.9705 15.1852 29.9699L25.7321 26.4543C25.9714 26.3745 26.1328 26.1506 26.1328 25.8984V16.6453L29.5897 15.5589C29.7852 15.4975 29.9343 15.3385 29.9832 15.1395C30.0319 14.9405 29.9733 14.7305 29.8284 14.5856L26.3756 11.1328ZM21.4453 5.85938C21.4453 5.71049 21.439 5.56195 21.4278 5.41389L28.3122 7.53879L25.3886 10.4624L20.6115 8.87021C21.1525 7.96605 21.4453 6.92273 21.4453 5.85938ZM11.1519 4.3343C11.8024 2.44277 13.5843 1.17188 15.5859 1.17188C17.7422 1.17188 19.6124 2.63039 20.1338 4.71867C20.2265 5.08975 20.2734 5.47354 20.2734 5.85938C20.2734 6.9477 19.9122 7.96775 19.2288 8.80969C18.3337 9.91371 17.0059 10.5469 15.5859 10.5469C14.051 10.5469 12.6113 9.79348 11.7344 8.53102C11.1875 7.74551 10.8984 6.8216 10.8984 5.85938C10.8984 5.33607 10.9837 4.82297 11.1519 4.3343ZM1.68542 7.5365L9.78893 5.00971C9.74827 5.28967 9.72653 5.57326 9.72653 5.85932C9.72653 6.80273 9.95001 7.7165 10.376 8.54098L4.61135 10.4624L1.68542 7.5365ZM2.86098 14.9253L4.71372 11.8373L14.1217 14.9733L12.269 18.0613C11.2644 17.7264 3.9336 15.2828 2.86098 14.9253ZM14.414 28.5686L6.21091 25.4924V17.2772C12.665 19.4171 12.3498 19.3518 12.5295 19.3518C12.731 19.3518 12.9239 19.2476 13.0321 19.0673L14.414 16.7639V28.5686ZM15 14.0308L6.30606 11.1329L11.0401 9.55494C12.1481 10.9171 13.8161 11.7188 15.5859 11.7188C17.2231 11.7188 18.7619 11.045 19.8686 9.85787L23.6939 11.1328L15 14.0308ZM24.9609 25.4761L15.5859 28.6011V16.3187L17.6631 18.9149C17.8142 19.1038 18.0658 19.1803 18.2963 19.1079L24.9609 17.0136V25.4761ZM18.3276 17.8697L15.9825 14.9385L25.3886 11.8032L28.3162 14.7308L18.3276 17.8697Z" fill="black"/>
<path d="M9.1405 21.6797C8.81707 21.6797 8.55457 21.9422 8.55457 22.2656C8.55457 22.5891 8.81707 22.8516 9.1405 22.8516C9.46394 22.8516 9.72644 22.5891 9.72644 22.2656C9.72644 21.9422 9.46394 21.6797 9.1405 21.6797Z" fill="black"/>
<path d="M18.9299 3.68725C18.7011 3.45839 18.3301 3.45844 18.1012 3.68725L14.9999 6.78862L14.2423 6.03106C14.0135 5.80225 13.6425 5.80225 13.4136 6.03106C13.1848 6.25987 13.1848 6.63089 13.4136 6.85975L14.5856 8.03157C14.8144 8.26038 15.1854 8.26038 15.4143 8.03157L18.9299 4.51594C19.1587 4.28714 19.1587 3.91612 18.9299 3.68725Z" fill="black"/>
<path d="M12.862 25.4847L9.34632 24.1664C9.04333 24.0528 8.7056 24.2063 8.59193 24.5093C8.47826 24.8122 8.63183 25.15 8.93482 25.2637L12.4505 26.582C12.5182 26.6074 12.5877 26.6195 12.6561 26.6195C12.8934 26.6195 13.1166 26.4744 13.2048 26.2391C13.3185 25.9361 13.165 25.5983 12.862 25.4847Z" fill="black"/>
<path d="M12.8619 22.9812L11.5588 22.4925C11.2558 22.379 10.9181 22.5324 10.8044 22.8354C10.6908 23.1384 10.8443 23.4762 11.1473 23.5898L12.4504 24.0785C12.7541 24.1923 13.0914 24.038 13.2048 23.7356C13.3185 23.4326 13.1649 23.0948 12.8619 22.9812Z" fill="black"/>
</g>
<defs>
<clipPath id="clip0">
<path d="M0 0H30V30H0V0Z" fill="white"/>
</clipPath>
</defs>
</svg>
