<svg width="25" height="25" viewBox="0 0 25 25" fill="none" xmlns="http://www.w3.org/2000/svg">
<path d="M18.4373 13.291H6.69585C6.30007 13.291 5.9043 13.5549 5.9043 14.0826C5.9043 17.7765 8.9386 20.6789 12.5006 20.6789C16.0626 20.6789 19.0969 17.6446 19.0969 14.0826C19.0969 13.6868 18.8331 13.291 18.4373 13.291ZM12.5006 19.2277C9.86208 19.2277 7.75126 17.2488 7.35548 14.7422H17.6457C17.2499 17.2488 15.1391 19.2277 12.5006 19.2277Z" fill="#1ED688"/>
<path d="M7.35508 9.59868C7.35508 9.86253 7.35508 10.1264 7.61893 10.2583C7.75086 10.3902 7.88278 10.3902 8.01471 10.3902C8.14663 10.3902 8.27856 10.3902 8.27856 10.2583L9.20205 9.7306L10.1255 10.2583C10.2575 10.2583 10.2575 10.3902 10.3894 10.3902C10.7852 10.3902 11.049 10.1264 11.049 9.7306V9.59868L10.7852 8.54327L11.5767 7.75171C11.7086 7.61979 11.8406 7.35594 11.7086 7.09208C11.5767 6.82823 11.4448 6.6963 11.1809 6.6963L10.1255 6.56438L9.59782 5.6409C9.4659 5.37704 9.33397 5.24512 9.07012 5.24512C8.80627 5.24512 8.67434 5.37704 8.54242 5.6409L8.01471 6.56438L6.9593 6.6963C6.69545 6.6963 6.56353 6.96016 6.4316 7.09208C6.29967 7.35594 6.4316 7.61979 6.56352 7.75171L7.48701 8.54327L7.35508 9.59868ZM8.27856 7.61979C8.67434 7.61979 8.9382 7.35594 9.07012 7.09208L9.20205 6.82823L9.33397 7.09208C9.4659 7.35594 9.72975 7.61979 10.1255 7.61979H10.3894L10.2575 7.75171C9.9936 8.01557 9.86167 8.27942 9.9936 8.6752V8.93905L9.72975 8.80712C9.4659 8.6752 9.07012 8.6752 8.80627 8.80712L8.54242 8.93905V8.6752C8.54242 8.27942 8.54241 8.01557 8.27856 7.75171L8.14664 7.61979H8.27856Z" fill="#1ED688"/>
<path d="M17.9084 6.6963L16.853 6.56438L16.4572 5.6409C16.3253 5.37704 16.1933 5.24512 15.9295 5.24512C15.6656 5.24512 15.5337 5.37704 15.4018 5.6409L14.8741 6.56438L13.8187 6.6963C13.5548 6.6963 13.4229 6.96016 13.291 7.09208C13.159 7.35594 13.291 7.61979 13.4229 7.75171L14.2145 8.54327L14.0825 9.59868C14.0825 9.86253 14.0825 10.1264 14.3464 10.2583C14.4783 10.3902 14.6102 10.3902 14.7422 10.3902C14.8741 10.3902 15.006 10.3902 15.006 10.2583L15.9295 9.7306L16.853 10.2583C16.9849 10.2583 16.9849 10.3902 17.1168 10.3902C17.5126 10.3902 17.7765 10.1264 17.7765 9.7306V9.59868L17.5126 8.54327L18.3042 7.75171C18.4361 7.61979 18.568 7.35594 18.4361 7.09208C18.4361 6.96016 18.1722 6.6963 17.9084 6.6963ZM16.853 7.88364C16.5891 8.01557 16.4572 8.41134 16.4572 8.80712V9.07097L16.1933 8.93905C15.9295 8.80712 15.5337 8.80712 15.1379 8.93905V9.07097V8.80712C15.1379 8.41134 15.1379 8.14749 14.8741 7.88364L14.7422 7.75171H15.006C15.4018 7.75171 15.6656 7.48786 15.7976 7.22401L15.9295 6.96016L16.0614 7.22401C16.1934 7.48786 16.4572 7.75171 16.853 7.75171H17.1168L16.853 7.88364Z" fill="#1ED688"/>
<path d="M21.3391 21.3391C26.2203 16.4578 26.2203 8.54222 21.3391 3.66095C16.4578 -1.22032 8.54222 -1.22032 3.66095 3.66095C-1.22032 8.54222 -1.22032 16.4578 3.66095 21.3391C8.54222 26.2203 16.4578 26.2203 21.3391 21.3391ZM4.98021 4.98021C9.06992 0.890502 15.7982 0.890502 19.8879 4.98021C23.9776 9.06992 23.9776 15.7982 19.8879 19.8879C15.7982 23.9776 9.06992 23.9776 4.98021 19.8879C0.890502 15.7982 0.890502 9.20185 4.98021 4.98021Z" fill="#1ED688"/>
</svg>
