<svg width="13" height="13" viewBox="0 0 13 13" fill="none" xmlns="http://www.w3.org/2000/svg">
<path d="M4.07414 6.19082L6.57096 8.807L9.06768 6.19082C9.43833 5.80261 9.71024 5.37897 9.87616 4.93174C10.045 4.48482 10.1166 4.00696 10.0859 3.53012C10.026 2.65098 9.64632 1.82401 9.01877 1.20535C7.65871 -0.127044 5.48291 -0.127044 4.12295 1.20535C3.4953 1.82401 3.11577 2.65098 3.05573 3.53012C3.0251 4.00696 3.09667 4.48482 3.26556 4.93174C3.43169 5.37887 3.7037 5.80261 4.07414 6.19082V6.19082ZM6.57107 1.63226C7.57559 1.63226 8.39296 2.45687 8.39296 3.47039C8.39296 4.4839 7.57559 5.30851 6.57107 5.30851C5.56644 5.30851 4.74917 4.4839 4.74917 3.47039C4.74917 2.45677 5.56644 1.63226 6.57107 1.63226Z" fill="white"/>
<path d="M10.7432 7.70801H9.2058L6.73655 10.2953C6.69346 10.3404 6.63372 10.3661 6.57134 10.3661C6.50885 10.3661 6.44911 10.3404 6.40602 10.2953L3.93688 7.70801H2.28132C2.23057 7.70801 2.18442 7.73731 2.16308 7.78336L0.43073 11.4954C0.41184 11.5359 0.414904 11.5831 0.438899 11.6206C0.462894 11.6584 0.504451 11.6811 0.549072 11.6811H12.4755C12.5201 11.6811 12.5615 11.6584 12.5855 11.6206C12.6094 11.5831 12.6126 11.5359 12.5938 11.4954L10.8615 7.78336C10.8399 7.73731 10.7939 7.70801 10.7432 7.70801Z" fill="white"/>
</svg>
