<svg width="30" height="30" viewBox="0 0 30 30" fill="none" xmlns="http://www.w3.org/2000/svg">
<path d="M23.1428 21.6431H21.8571V14.786H22.7143C23.0608 14.786 23.3734 14.5771 23.5063 14.2568C23.6388 13.9366 23.5657 13.568 23.3205 13.3226L15.6062 5.60827C15.4388 5.44113 15.2194 5.35742 15 5.35742C14.7805 5.35742 14.5611 5.44113 14.394 5.60857L12 8.00228V7.07171C12 6.59827 11.6163 6.21456 11.1428 6.21456H10.2857C9.81226 6.21456 9.42856 6.59827 9.42856 7.07171V10.5737L6.67971 13.3226C6.43455 13.5677 6.36113 13.9363 6.49398 14.2568C6.62654 14.5771 6.93913 14.786 7.2857 14.786H8.14284V21.6431H6.85713C6.62028 21.6431 6.42856 21.8349 6.42856 22.0717C6.42856 22.3086 6.62028 22.5003 6.85713 22.5003H23.1428C23.3797 22.5003 23.5714 22.3086 23.5714 22.0717C23.5714 21.8349 23.3797 21.6431 23.1428 21.6431ZM10.2857 7.07171H11.1428V8.85942L10.2857 9.71656V7.07171ZM21 21.6431H17.1428H16.7845C16.5206 21.6431 16.7591 21.6432 16.2857 21.6432L14.011 21.6431C13.5376 21.6431 13.1592 21.6431 12.8571 21.6432L8.99999 21.6431V13.9288H7.2857L15 6.21456L22.7143 13.9288H21V21.6431Z" fill="black"/>
<path d="M16.7142 21.9297H17.2142V21.4297V15.9297C17.2142 14.549 16.095 13.4297 14.7142 13.4297H14.4285C13.0478 13.4297 11.9285 14.549 11.9285 15.9297V21.4297V21.9297H12.4285H16.7142Z" fill="#EF3829" stroke="black"/>
<path d="M5.64629 12.8118L5.14399 11.9747L3.82113 12.7684C5.20452 7.13869 10.267 3.11886 16.134 3.11886C17.4163 3.11886 18.6816 3.30923 19.8946 3.6851L20.1836 2.75275C18.8768 2.3476 17.5144 2.14258 16.134 2.14258C9.75593 2.14258 4.26192 6.55438 2.83363 12.7084L1.9086 11.1663L1.07144 11.6686L2.78725 14.5277L5.64629 12.8118Z" fill="black"/>
<path d="M24.6255 17.9206L25.1278 18.7577L26.4507 17.964C25.0673 23.5937 20.0048 27.6136 14.1378 27.6136C12.8555 27.6136 11.5902 27.4232 10.3772 27.0473L10.0882 27.9797C11.395 28.3848 12.7574 28.5898 14.1378 28.5898C20.5159 28.5898 26.0099 24.178 27.4382 18.0241L28.3632 19.5661L29.2003 19.0638L27.4845 16.2048L24.6255 17.9206Z" fill="black"/>
</svg>
