<svg width="30" height="30" viewBox="0 0 30 30" fill="none" xmlns="http://www.w3.org/2000/svg">
<g clip-path="url(#clip0)">
<path d="M12.5 17.5L3.5 13V20.5L15 26L27 20.5V13L17.5 17.5L15 13L12.5 17.5Z" fill="#FF0000"/>
<path d="M29.918 11.6048L27.156 6.40095C27.0623 6.22443 26.9026 6.10297 26.7217 6.05311C26.7205 6.0528 26.7197 6.05238 26.7184 6.05201L15.212 2.94612C15.0924 2.91392 14.9663 2.91374 14.8466 2.94588L3.28233 6.05177C3.28105 6.05213 3.2802 6.05256 3.27885 6.05293C3.09763 6.10266 2.93773 6.22425 2.84394 6.40095L0.0819872 11.6048C-0.00801285 11.7744 -0.0246931 11.9734 0.0357957 12.1556C0.0962845 12.3378 0.228749 12.4874 0.402333 12.5694L2.80545 13.7054V20.814C2.80545 21.0837 2.95979 21.3296 3.20272 21.4467L14.7235 27.0069C14.8203 27.0537 14.9247 27.0768 15.0288 27.0768C15.1322 27.0768 15.2349 27.053 15.3299 27.0079C15.3314 27.0075 15.3329 27.0076 15.3343 27.0069L26.8551 21.4467C27.098 21.3295 27.2523 21.0836 27.2523 20.8139V13.706C27.2523 13.6968 27.2513 13.6878 27.251 13.6788L29.5977 12.5695C29.7713 12.4874 29.9038 12.3379 29.9643 12.1557C30.0247 11.9734 30.008 11.7744 29.918 11.6048ZM15.0284 4.35215L24.2292 6.83568L15 10.2562L5.77514 6.83739L15.0284 4.35215ZM3.79698 7.60291L14.0551 11.4047L11.7959 16.4009L1.66838 11.6135L3.79698 7.60291ZM4.21075 20.3729V14.3697L11.8413 17.9767C11.9361 18.0216 12.0388 18.0442 12.1416 18.0442C12.2236 18.0442 12.3057 18.0299 12.3841 18.0011C12.561 17.936 12.7042 17.8027 12.7819 17.631L14.3262 14.2158V25.2549L4.21075 20.3729ZM25.847 20.3729L15.7315 25.2549V14.3436L17.2181 17.631C17.2958 17.8027 17.439 17.936 17.6159 18.0011C17.6943 18.0299 17.7764 18.0442 17.8584 18.0442C17.9613 18.0442 18.0638 18.0216 18.1587 17.9767L25.847 14.3424V20.3729V20.3729ZM18.2041 16.4008L15.9448 11.4047L26.2029 7.60285L28.3316 11.6134L18.2041 16.4008Z" fill="black"/>
</g>
<defs>
<clipPath id="clip0">
<path d="M0 0H30V30H0V0Z" fill="white"/>
</clipPath>
</defs>
</svg>
