<svg width="24" height="24" viewBox="0 0 24 24" fill="none" xmlns="http://www.w3.org/2000/svg">
<path d="M3.38789 12.0209C3.38789 14.8482 4.79297 17.3447 6.94141 18.8572C7.31953 19.1236 7.34102 19.6779 6.97578 19.9615L6.96719 19.9701C6.73086 20.1592 6.3957 20.1678 6.15078 19.9959C3.64141 18.2342 2 15.3166 2 12.0209C2 6.67129 6.43008 2.32715 11.7668 2.28418V3.67207C7.19492 3.71504 3.38789 7.43613 3.38789 12.0209Z" fill="white"/>
<path d="M12.0203 1.04285L14.5726 2.78739C14.7101 2.88192 14.7101 3.08387 14.5726 3.1741L12.0203 4.91864C11.8656 5.02606 11.6508 4.91434 11.6508 4.72528V1.23621C11.6551 1.04715 11.8656 0.935433 12.0203 1.04285Z" fill="white"/>
<path d="M20.2789 11.9786C20.2789 9.15128 18.8738 6.6548 16.7254 5.1423C16.3473 4.87589 16.3258 4.3216 16.691 4.038L16.6996 4.02941C16.9359 3.84035 17.2711 3.83175 17.516 4.00363C20.0254 5.76535 21.6625 8.67863 21.6625 11.9786C21.6625 17.3282 17.241 21.6724 11.9043 21.7153V20.3275C16.4805 20.2845 20.2789 16.5634 20.2789 11.9786Z" fill="white"/>
<path d="M11.6464 22.9567L9.09409 21.2122C8.95659 21.1177 8.95659 20.9157 9.09409 20.8255L11.6464 19.0809C11.8011 18.9735 12.016 19.0852 12.016 19.2743V22.7634C12.0117 22.9524 11.8011 23.0642 11.6464 22.9567Z" fill="white"/>
<path d="M16.1624 10.9166L11.9816 14.3841L10.9289 15.2564C10.6796 15.4627 10.366 15.5744 10.048 15.5744C9.99643 15.5744 9.94057 15.5701 9.88901 15.5658C9.51518 15.5228 9.17143 15.3252 8.948 15.0244L7.32378 12.8588C6.95854 12.3689 7.05737 11.6728 7.54722 11.3076C8.03706 10.9423 8.73315 11.0412 9.09839 11.531L10.1941 12.992L10.2027 12.9834L14.7488 9.21071C15.2214 8.81969 15.9175 8.88415 16.3085 9.3568C16.6996 9.82946 16.6351 10.5256 16.1624 10.9166Z" fill="white"/>
<path d="M16.1625 10.9166L11.9817 14.3841C11.2985 14.0447 10.6969 13.572 10.1985 12.9834L14.7446 9.21071C15.2172 8.81969 15.9133 8.88415 16.3043 9.3568C16.6953 9.82946 16.6352 10.5256 16.1625 10.9166Z" fill="white"/>
</svg>
