<svg width="13" height="24" viewBox="0 0 13 24" fill="none" xmlns="http://www.w3.org/2000/svg">
<path d="M10.7311 20.5147H10.5365V1.98534C10.5365 0.890625 9.64584 0 8.55108 0H4.05469C2.95997 0 2.0693 0.890625 2.0693 1.98534V20.5146H1.87467C0.840938 20.5146 0 21.3556 0 22.3893V23.5219C0 23.7859 0.214031 24 0.478078 24H12.1277C12.3918 24 12.6058 23.7859 12.6058 23.5219V22.3893C12.6058 21.3556 11.7649 20.5147 10.7311 20.5147ZM2.0693 23.0438H0.956109V22.3893H0.956156C0.956156 21.8828 1.36823 21.4708 1.87467 21.4708H2.0693V23.0438ZM9.58036 23.0438H3.0255V1.98534C3.0255 1.41788 3.48717 0.956156 4.05473 0.956156H8.55113C9.11864 0.956156 9.58036 1.41783 9.58036 1.98534V23.0438ZM11.6497 23.0438H10.5365V21.4709H10.7311C11.2376 21.4709 11.6497 21.8829 11.6497 22.3894V23.0438V23.0438Z" fill="#585858"/>
<path d="M5.1788 2.78418C4.46438 2.78418 3.88318 3.36538 3.88318 4.0798C3.88318 4.79423 4.46438 5.37543 5.1788 5.37543C5.89323 5.37543 6.47443 4.79423 6.47443 4.0798C6.47443 3.36538 5.89318 2.78418 5.1788 2.78418ZM5.1788 4.41923C4.99163 4.41923 4.83938 4.26698 4.83938 4.0798C4.83938 3.89263 4.99163 3.74038 5.1788 3.74038C5.36598 3.74038 5.51823 3.89263 5.51823 4.0798C5.51823 4.26698 5.36593 4.41923 5.1788 4.41923Z" fill="#585858"/>
<path d="M5.1788 6.51465C4.46438 6.51465 3.88318 7.09585 3.88318 7.81027C3.88318 8.5247 4.46438 9.10595 5.1788 9.10595C5.89323 9.10595 6.47443 8.52474 6.47443 7.81027C6.47433 7.0959 5.89318 6.51465 5.1788 6.51465ZM5.1788 8.14974C4.99163 8.14974 4.83938 7.99745 4.83938 7.81027C4.83938 7.6231 4.99163 7.47085 5.1788 7.47085C5.36598 7.47085 5.51823 7.6231 5.51823 7.81027C5.51823 7.99745 5.36593 8.14974 5.1788 8.14974Z" fill="#585858"/>
<path d="M5.1788 10.2441C4.46438 10.2441 3.88318 10.8253 3.88318 11.5398C3.88318 12.2542 4.46438 12.8354 5.1788 12.8354C5.89323 12.8354 6.47443 12.2542 6.47443 11.5398C6.47433 10.8253 5.89318 10.2441 5.1788 10.2441ZM5.1788 11.8792C4.99163 11.8792 4.83938 11.7269 4.83938 11.5398C4.83938 11.3526 4.99163 11.2003 5.1788 11.2003C5.36598 11.2003 5.51823 11.3526 5.51823 11.5398C5.51823 11.7269 5.36593 11.8792 5.1788 11.8792Z" fill="#585858"/>
<path d="M5.12768 15.9668C4.86363 15.9668 4.6496 16.1809 4.6496 16.4449V21.5033C4.6496 21.7673 4.86363 21.9814 5.12768 21.9814C5.39172 21.9814 5.60575 21.7673 5.60575 21.5033V16.4449C5.6058 16.1809 5.39172 15.9668 5.12768 15.9668Z" fill="#585858"/>
</svg>
