<svg width="24" height="20" viewBox="0 0 24 20" fill="none" xmlns="http://www.w3.org/2000/svg">
<path d="M21.8182 15.5556V2.22222H2.18182V15.5556H21.8182ZM21.8182 0C22.3968 0 22.9518 0.234126 23.361 0.650874C23.7701 1.06762 24 1.63285 24 2.22222V15.5556C24 16.1449 23.7701 16.7102 23.361 17.1269C22.9518 17.5437 22.3968 17.7778 21.8182 17.7778H16.3636V20H7.63636V17.7778H2.18182C1.60316 17.7778 1.04821 17.5437 0.63904 17.1269C0.22987 16.7102 0 16.1449 0 15.5556V2.22222C0 1.63285 0.22987 1.06762 0.63904 0.650874C1.04821 0.234126 1.60316 0 2.18182 0H21.8182ZM4.36364 4.44444H10.9091V8.88889H4.36364V4.44444ZM4.36364 11.1111H10.9091V13.3333H4.36364V11.1111ZM13.0909 4.44444H19.6364V6.66667H13.0909V4.44444ZM13.0909 8.88889H19.6364V13.3333H13.0909V8.88889Z" fill="#747D84"/>
</svg>
