<svg width="21" height="8" viewBox="0 0 21 8" fill="none" xmlns="http://www.w3.org/2000/svg">
<path fill-rule="evenodd" clip-rule="evenodd" d="M18.332 0H11.3438V0.179682C11.3354 0.312959 11.339 0.586984 11.3417 0.79523V0.79531C11.3428 0.878386 11.3438 0.950988 11.3438 1H18.332C18.8828 1 19 1.0666 19 1.59244V5.4113C19 5.93714 18.8828 6 18.332 6H1.66797C1.11719 6 1 5.93714 1 5.4113V1.59244C1 1.0666 1.11719 1 1.66797 1H9.97656C9.96484 0.499994 9.97656 0.499994 9.97656 0.499994V0H1.66797C0.746094 0 0 0.712307 0 1.59244V5.4113C0 6.29142 0.746094 7.00373 1.66797 7.00373H18.3359C19.2578 7.00373 20.0039 6.29142 20.0039 5.4113V1.59244C20 0.712307 19.2539 0 18.332 0ZM13.6445 2.54711C14.1953 2.54711 14.6445 2.97599 14.6445 3.50183C14.6445 4.02767 14.1953 4.45654 13.6445 4.45654C13.0938 4.45654 12.6445 4.02767 12.6445 3.50183C12.6445 2.97599 13.0938 2.54711 13.6445 2.54711ZM13.6406 3.18483C13.457 3.18483 13.3086 3.32655 13.3086 3.50183C13.3086 3.67711 13.457 3.81882 13.6406 3.81882C13.8242 3.81882 13.9727 3.67711 13.9727 3.50183C13.9727 3.32655 13.8242 3.18483 13.6406 3.18483ZM16.3086 2.54711C16.8594 2.54711 17.3086 2.97599 17.3086 3.50183C17.3086 4.02767 16.8594 4.45654 16.3086 4.45654C15.7578 4.45654 15.3086 4.02767 15.3086 3.50183C15.3086 2.97599 15.7578 2.54711 16.3086 2.54711ZM16.3086 3.18483C16.125 3.18483 15.9766 3.32655 15.9766 3.50183C15.9766 3.67711 16.125 3.81882 16.3086 3.81882C16.4922 3.81882 16.6406 3.67711 16.6406 3.50183C16.6406 3.32655 16.4922 3.18483 16.3086 3.18483ZM2.97656 3.49999C2.97656 3.22352 3.13852 2.99999 3.33884 2.99999H10.6143C10.8146 2.99999 10.9766 3.22352 10.9766 3.49999C10.9766 3.77646 10.8146 3.99999 10.6143 3.99999H3.33884C3.13852 3.99999 2.97656 3.77646 2.97656 3.49999Z" fill="#585858"/>
</svg>
