<svg width="30" height="30" viewBox="0 0 30 30" fill="none" xmlns="http://www.w3.org/2000/svg">
<path d="M23.1429 21.6431H21.8572V14.786H22.7143C23.0609 14.786 23.3734 14.5771 23.5063 14.2568C23.6388 13.9366 23.5657 13.568 23.3206 13.3226L15.6063 5.60827C15.4389 5.44113 15.2195 5.35742 15 5.35742C14.7806 5.35742 14.5612 5.44113 14.394 5.60857L12 8.00228V7.07171C12 6.59827 11.6163 6.21456 11.1429 6.21456H10.2857C9.81229 6.21456 9.42859 6.59827 9.42859 7.07171V10.5737L6.67974 13.3226C6.43458 13.5677 6.36116 13.9363 6.49401 14.2568C6.62657 14.5771 6.93916 14.786 7.28573 14.786H8.14287V21.6431H6.85716C6.62031 21.6431 6.42859 21.8349 6.42859 22.0717C6.42859 22.3086 6.62031 22.5003 6.85716 22.5003H23.1429C23.3797 22.5003 23.5714 22.3086 23.5714 22.0717C23.5714 21.8349 23.3797 21.6431 23.1429 21.6431ZM10.2857 7.07171H11.1429V8.85942L10.2857 9.71656V7.07171ZM21 21.6431H17.1429H16.7845C16.5206 21.6431 16.7592 21.6432 16.2857 21.6432L14.0111 21.6431C13.5376 21.6431 13.1592 21.6431 12.8572 21.6432L9.00002 21.6431V13.9288H7.28573L15 6.21456L22.7143 13.9288H21V21.6431Z" fill="#B9BEC1"/>
<path d="M16.7143 21.9297H17.2143V21.4297V15.9297C17.2143 14.549 16.095 13.4297 14.7143 13.4297H14.4286C13.0479 13.4297 11.9286 14.549 11.9286 15.9297V21.4297V21.9297H12.4286H16.7143Z" stroke="#B9BEC1"/>
<path d="M5.64626 12.8118L5.14396 11.9747L3.8211 12.7684C5.20449 7.13869 10.267 3.11886 16.1339 3.11886C17.4163 3.11886 18.6815 3.30923 19.8946 3.6851L20.1835 2.75275C18.8768 2.3476 17.5144 2.14258 16.1339 2.14258C9.7559 2.14258 4.26189 6.55438 2.8336 12.7084L1.90857 11.1663L1.07141 11.6686L2.78722 14.5277L5.64626 12.8118Z" fill="#B9BEC1"/>
<path d="M24.6255 17.9206L25.1278 18.7577L26.4507 17.964C25.0673 23.5937 20.0048 27.6136 14.1379 27.6136C12.8555 27.6136 11.5903 27.4232 10.3772 27.0473L10.0882 27.9797C11.395 28.3848 12.7574 28.5898 14.1379 28.5898C20.5159 28.5898 26.0099 24.178 27.4382 18.0241L28.3632 19.5661L29.2004 19.0638L27.4846 16.2048L24.6255 17.9206Z" fill="#B9BEC1"/>
</svg>
