<svg width="24" height="24" viewBox="0 0 24 24" fill="none" xmlns="http://www.w3.org/2000/svg">
<path fill-rule="evenodd" clip-rule="evenodd" d="M20.332 8H13.3438V8.17968C13.3354 8.31296 13.339 8.58698 13.3417 8.79523V8.79531C13.3428 8.87839 13.3438 8.95099 13.3438 9H20.332C20.8828 9 21 9.0666 21 9.59244V13.4113C21 13.9371 20.8828 14 20.332 14H3.66797C3.11719 14 3 13.9371 3 13.4113V9.59244C3 9.0666 3.11719 9 3.66797 9H11.9766C11.9648 8.49999 11.9766 8.49999 11.9766 8.49999V8H3.66797C2.74609 8 2 8.71231 2 9.59244V13.4113C2 14.2914 2.74609 15.0037 3.66797 15.0037H20.3359C21.2578 15.0037 22.0039 14.2914 22.0039 13.4113V9.59244C22 8.71231 21.2539 8 20.332 8ZM15.6445 10.5471C16.1953 10.5471 16.6445 10.976 16.6445 11.5018C16.6445 12.0277 16.1953 12.4565 15.6445 12.4565C15.0938 12.4565 14.6445 12.0277 14.6445 11.5018C14.6445 10.976 15.0938 10.5471 15.6445 10.5471ZM15.6406 11.1848C15.457 11.1848 15.3086 11.3265 15.3086 11.5018C15.3086 11.6771 15.457 11.8188 15.6406 11.8188C15.8242 11.8188 15.9727 11.6771 15.9727 11.5018C15.9727 11.3265 15.8242 11.1848 15.6406 11.1848ZM18.3086 10.5471C18.8594 10.5471 19.3086 10.976 19.3086 11.5018C19.3086 12.0277 18.8594 12.4565 18.3086 12.4565C17.7578 12.4565 17.3086 12.0277 17.3086 11.5018C17.3086 10.976 17.7578 10.5471 18.3086 10.5471ZM18.3086 11.1848C18.125 11.1848 17.9766 11.3265 17.9766 11.5018C17.9766 11.6771 18.125 11.8188 18.3086 11.8188C18.4922 11.8188 18.6406 11.6771 18.6406 11.5018C18.6406 11.3265 18.4922 11.1848 18.3086 11.1848ZM4.97656 11.5C4.97656 11.2235 5.13852 11 5.33884 11H12.6143C12.8146 11 12.9766 11.2235 12.9766 11.5C12.9766 11.7765 12.8146 12 12.6143 12H5.33884C5.13852 12 4.97656 11.7765 4.97656 11.5Z" fill="#585858"/>
</svg>
