<svg width="28" height="28" viewBox="0 0 28 28" fill="none" xmlns="http://www.w3.org/2000/svg">
<path d="M1.42188 5.49609H4.33847V6.80859H1.42188V5.49609Z" fill="#FF0000"/>
<path d="M1.42188 10.7285H4.33847V12.041H1.42188V10.7285Z" fill="#FF0000"/>
<path d="M1.42188 15.959H4.33847V17.2715H1.42188V15.959Z" fill="#FF0000"/>
<path d="M1.42188 21.1914H4.33847V22.5039H1.42188V21.1914Z" fill="#FF0000"/>
<path d="M26.6066 1.03906H2.88094C2.77941 1.03906 2.68204 1.07939 2.61025 1.15119C2.53846 1.22298 2.49813 1.32035 2.49813 1.42188V5.11372H1.42188C1.32035 5.11372 1.22298 5.15405 1.15119 5.22584C1.07939 5.29763 1.03906 5.395 1.03906 5.49653V6.80903C1.03906 6.91056 1.07939 7.00793 1.15119 7.07972C1.22298 7.15151 1.32035 7.19184 1.42188 7.19184H2.49813V10.3451H1.42188C1.32035 10.3451 1.22298 10.3855 1.15119 10.4572C1.07939 10.529 1.03906 10.6264 1.03906 10.7279V12.0404C1.03906 12.142 1.07939 12.2393 1.15119 12.3111C1.22298 12.3829 1.32035 12.4233 1.42188 12.4233H2.49813V15.5768H1.42188C1.32035 15.5768 1.22298 15.6171 1.15119 15.6889C1.07939 15.7607 1.03906 15.858 1.03906 15.9596V17.2721C1.03906 17.3736 1.07939 17.471 1.15119 17.5428C1.22298 17.6145 1.32035 17.6549 1.42188 17.6549H2.49813V20.8082H1.42188C1.32035 20.8082 1.22298 20.8485 1.15119 20.9203C1.07939 20.9921 1.03906 21.0894 1.03906 21.191V22.5035C1.03906 22.605 1.07939 22.7024 1.15119 22.7742C1.22298 22.8459 1.32035 22.8863 1.42188 22.8863H2.49813V26.5781C2.49813 26.6797 2.53846 26.777 2.61025 26.8488C2.68204 26.9206 2.77941 26.9609 2.88094 26.9609H11.5216C11.6231 26.9609 11.7205 26.9206 11.7923 26.8488C11.864 26.777 11.9044 26.6797 11.9044 26.5781C11.9044 26.4766 11.864 26.3792 11.7923 26.3074C11.7205 26.2356 11.6231 26.1953 11.5216 26.1953H3.26375V22.8863H4.33847C4.38875 22.8863 4.43854 22.8764 4.485 22.8572C4.53146 22.838 4.57367 22.8098 4.60922 22.7742C4.64478 22.7387 4.67297 22.6965 4.6922 22.65C4.71143 22.6035 4.72131 22.5537 4.72128 22.5035V21.191C4.72131 21.1407 4.71143 21.0909 4.6922 21.0444C4.67297 20.998 4.64478 20.9558 4.60922 20.9202C4.57367 20.8847 4.53146 20.8565 4.485 20.8372C4.43854 20.818 4.38875 20.8081 4.33847 20.8082H3.26375V17.6549H4.33847C4.38875 17.6549 4.43854 17.645 4.485 17.6258C4.53146 17.6066 4.57367 17.5784 4.60922 17.5428C4.64478 17.5073 4.67297 17.4651 4.6922 17.4186C4.71143 17.3721 4.72131 17.3223 4.72128 17.2721V15.9596C4.72131 15.9093 4.71143 15.8595 4.6922 15.813C4.67297 15.7666 4.64478 15.7244 4.60922 15.6888C4.57367 15.6533 4.53146 15.6251 4.485 15.6058C4.43854 15.5866 4.38875 15.5767 4.33847 15.5768H3.26375V12.4233H4.33847C4.38875 12.4233 4.43854 12.4134 4.485 12.3942C4.53146 12.3749 4.57367 12.3467 4.60922 12.3112C4.64478 12.2756 4.67297 12.2334 4.6922 12.187C4.71143 12.1405 4.72131 12.0907 4.72128 12.0404V10.7279C4.72131 10.6777 4.71143 10.6279 4.6922 10.5814C4.67297 10.5349 4.64478 10.4927 4.60922 10.4572C4.57367 10.4216 4.53146 10.3934 4.485 10.3742C4.43854 10.355 4.38875 10.3451 4.33847 10.3451H3.26375V7.19184H4.33847C4.38875 7.19187 4.43854 7.18199 4.485 7.16276C4.53146 7.14353 4.57367 7.11534 4.60922 7.07979C4.64478 7.04423 4.67297 7.00202 4.6922 6.95556C4.71143 6.9091 4.72131 6.85931 4.72128 6.80903V5.49653C4.72131 5.44625 4.71143 5.39646 4.6922 5.35C4.67297 5.30354 4.64478 5.26133 4.60922 5.22578C4.57367 5.19023 4.53146 5.16203 4.485 5.1428C4.43854 5.12357 4.38875 5.11369 4.33847 5.11372H3.26375V1.80469H21.8203V26.1953H13.526C13.4244 26.1953 13.3271 26.2356 13.2553 26.3074C13.1835 26.3792 13.1432 26.4766 13.1432 26.5781C13.1432 26.6797 13.1835 26.777 13.2553 26.8488C13.3271 26.9206 13.4244 26.9609 13.526 26.9609H26.6072C26.7087 26.9609 26.8061 26.9206 26.8779 26.8488C26.9497 26.777 26.99 26.6797 26.99 26.5781V13.7994C26.99 13.6979 26.9497 13.6005 26.8779 13.5287C26.8061 13.4569 26.7087 13.4166 26.6072 13.4166C26.5057 13.4166 26.4083 13.4569 26.3365 13.5287C26.2647 13.6005 26.2244 13.6979 26.2244 13.7994V26.1953H24.7872V1.80469H26.2244V8.48531C26.2244 8.58684 26.2647 8.68421 26.3365 8.756C26.4083 8.82779 26.5057 8.86813 26.6072 8.86813C26.7087 8.86813 26.8061 8.82779 26.8779 8.756C26.9497 8.68421 26.99 8.58684 26.99 8.48531V1.42188C26.99 1.37155 26.9801 1.32172 26.9608 1.27523C26.9415 1.22874 26.9133 1.18651 26.8777 1.15095C26.8421 1.1154 26.7998 1.08721 26.7533 1.06801C26.7067 1.04881 26.6569 1.03898 26.6066 1.03906V1.03906ZM3.95566 22.1207H2.8875C2.88531 22.1207 2.88334 22.1207 2.88116 22.1207C2.87897 22.1207 2.877 22.1207 2.87481 22.1207H1.80469V21.5738H3.95566V22.1207ZM3.95566 16.8893H1.80469V16.3424H2.87656H2.88072H2.88487H3.95544L3.95566 16.8893ZM3.95566 11.6576H2.88509H2.88094H2.87678H1.80469V11.1108H3.95566V11.6576ZM3.95566 6.42622H1.80469V5.87934H2.87459H2.88094C2.88094 5.87934 2.88509 5.87934 2.88728 5.87934H3.95566V6.42622ZM24.0209 26.1953H22.5859V1.80469H24.0209V26.1953Z" fill="black"/>
<path d="M26.6065 9.91602C26.505 9.91602 26.4076 9.95635 26.3358 10.0281C26.264 10.0999 26.2237 10.1973 26.2237 10.2988V11.8119C26.2237 11.9135 26.264 12.0108 26.3358 12.0826C26.4076 12.1544 26.505 12.1947 26.6065 12.1947C26.708 12.1947 26.8054 12.1544 26.8772 12.0826C26.949 12.0108 26.9893 11.9135 26.9893 11.8119V10.2988C26.9893 10.1973 26.949 10.0999 26.8772 10.0281C26.8054 9.95635 26.708 9.91602 26.6065 9.91602V9.91602Z" fill="black"/>
<path d="M17.1903 20.3027H8.38281C8.28128 20.3027 8.18391 20.3431 8.11212 20.4149C8.04033 20.4866 8 20.584 8 20.6855C8 20.7871 8.04033 20.8844 8.11212 20.9562C8.18391 21.028 8.28128 21.0684 8.38281 21.0684H17.1903C17.2919 21.0684 17.3892 21.028 17.461 20.9562C17.5328 20.8844 17.5731 20.7871 17.5731 20.6855C17.5731 20.584 17.5328 20.4866 17.461 20.4149C17.3892 20.3431 17.2919 20.3027 17.1903 20.3027V20.3027Z" fill="black"/>
<path d="M8.38281 23.3926H17.1903C17.2919 23.3926 17.3892 23.3522 17.461 23.2805C17.5328 23.2087 17.5731 23.1113 17.5731 23.0098C17.5731 22.9082 17.5328 22.8109 17.461 22.7391C17.3892 22.6673 17.2919 22.627 17.1903 22.627H8.38281C8.28128 22.627 8.18391 22.6673 8.11212 22.7391C8.04033 22.8109 8 22.9082 8 23.0098C8 23.1113 8.04033 23.2087 8.11212 23.2805C8.18391 23.3522 8.28128 23.3926 8.38281 23.3926V23.3926Z" fill="black"/>
<path d="M16.2537 14.7882L16.2536 14.7883L11.9705 19.2763L7.6873 14.7883C7.68729 14.7883 7.68729 14.7883 7.68728 14.7882C7.03926 14.1091 6.57265 13.3777 6.29001 12.617L6.29002 12.617L6.28904 12.6144C6.00012 11.8498 5.87761 11.0324 5.92987 10.2167C6.03345 8.70354 6.6867 7.28027 7.76681 6.21535C10.1023 3.92775 13.8383 3.92776 16.174 6.21544C17.2539 7.28043 17.9073 8.70373 18.0107 10.2168C18.0631 11.0324 17.9406 11.8498 17.6517 12.6144L17.6506 12.6172C17.3684 13.378 16.902 14.1091 16.2537 14.7882ZM15.8596 10.0725C15.8596 7.91533 14.1195 6.15345 11.9707 6.15345C9.82174 6.15345 8.08188 7.91514 8.08188 10.0725C8.08188 12.2297 9.82172 13.9916 11.9707 13.9916C14.1195 13.9916 15.8596 12.2297 15.8596 10.0725Z" fill="#FF0000" stroke="black" stroke-width="0.999328"/>
</svg>
