<svg width="34" height="32" viewBox="0 0 34 32" fill="none" xmlns="http://www.w3.org/2000/svg">
<path d="M33.3398 7.47266H20.803C20.6902 7.47266 20.5968 7.56328 20.5968 7.67256V15.4956C20.5968 15.6049 20.6902 15.6955 20.803 15.6955H26.1002V16.3486H24.8802C24.8802 16.4877 24.8802 16.531 24.8802 16.6403C24.8802 16.7496 24.8802 16.7615 24.8802 16.8883H29.2598C29.2598 16.757 29.2598 16.7283 29.2598 16.619C29.2598 16.5098 29.2598 16.5461 29.2598 16.3486H28.0426V15.6955H33.3371C33.4498 15.6955 33.5433 15.6049 33.5433 15.4956V7.67256C33.546 7.56328 33.4525 7.47266 33.3398 7.47266ZM32.8985 8.10037V14.0636H21.2442V8.10037H32.8985ZM27.3951 16.3486H26.7477V15.6955H27.3951V16.3486ZM21.2442 15.1307V14.6913H32.8985V15.1307H21.2442Z" fill="black"/>
<path d="M22.9507 12.9313V10.2831V9.40039H31.1894V12.9313H22.9507Z" fill="#EF3829"/>
<path d="M28.3608 6.22647C28.5528 6.42495 28.8694 6.43022 29.0678 6.23823C29.2663 6.04624 29.2716 5.7297 29.0796 5.53122L28.3608 6.22647ZM25.383 5.57607C25.1833 5.76679 25.1761 6.08329 25.3668 6.28299C25.5575 6.48269 25.874 6.48997 26.0737 6.29925L25.383 5.57607ZM29.9288 4.42903C30.0946 4.64986 30.408 4.69448 30.6289 4.52869C30.8497 4.3629 30.8943 4.04947 30.7285 3.82864L29.9288 4.42903ZM23.7975 3.61479C23.5923 3.7996 23.5758 4.11575 23.7606 4.32093C23.9454 4.52611 24.2616 4.54263 24.4668 4.35782L23.7975 3.61479ZM29.0796 5.53122C28.7835 5.2251 28.2557 4.87209 27.5947 4.77742C26.9056 4.67871 26.1231 4.86932 25.383 5.57607L26.0737 6.29925C26.6015 5.7952 27.0804 5.71396 27.453 5.76732C27.8537 5.82471 28.1879 6.04769 28.3608 6.22647L29.0796 5.53122ZM30.7285 3.82864C30.2443 3.18372 29.2369 2.49223 27.9985 2.27472C26.7297 2.05185 25.2265 2.32764 23.7975 3.61479L24.4668 4.35782C25.6633 3.28012 26.8544 3.08907 27.8255 3.25964C28.827 3.43555 29.605 3.99775 29.9288 4.42903L30.7285 3.82864Z" fill="black"/>
<path d="M6.0353 15.0771L5.56649 14.2958L4.33182 15.0366C5.62298 9.78217 10.348 6.03033 15.8238 6.03033C17.0206 6.03033 18.2016 6.20802 19.3337 6.55883L19.6034 5.68864C18.3838 5.31049 17.1122 5.11914 15.8238 5.11914C9.87097 5.11914 4.74322 9.23683 3.41015 14.9805L2.54679 13.5413L1.76544 14.0101L3.36687 16.6785L6.0353 15.0771Z" fill="black"/>
<path d="M24.7492 20.8448L25.2181 21.6261L26.4527 20.8853C25.1616 26.1397 20.4366 29.8915 14.9607 29.8915C13.7639 29.8915 12.583 29.7139 11.4508 29.363L11.1811 30.2332C12.4007 30.6114 13.6723 30.8027 14.9607 30.8027C20.9136 30.8027 26.0413 26.685 27.3744 20.9413L28.2378 22.3806L29.0191 21.9118L27.4177 19.2433L24.7492 20.8448Z" fill="black"/>
<path d="M5.17495 22.0645L6.50302 21.002L4.22394 18.1534L2.89588 19.2159L5.17495 22.0645Z" fill="#EF3829"/>
<path d="M10.4166 28.5171L11.6709 27.5718L9.57479 24.871L8.31419 25.8083L10.4166 28.5171Z" fill="#EF3829"/>
<path d="M10.1901 25C9.9301 24.6837 9.41776 24.6336 9.1014 24.8936L8.11718 25.7026C7.97658 25.8182 7.38621 25.2433 7.06214 24.9206C6.47178 24.3457 5.92283 23.6778 5.53085 23.0576C5.33486 22.7476 5.08735 22.3031 5.22795 22.1875L6.21217 21.3786C6.38793 21.2341 6.47075 21.0482 6.48952 20.8561C6.5083 20.664 6.43414 20.4304 6.31857 20.2898L4.49836 18.0753C4.23833 17.759 3.72598 17.7089 3.40963 17.9689L2.39025 18.8068C2.31995 18.8646 0.547497 20.7927 3.44444 24.8904C3.44444 24.8904 3.64043 25.2005 4.21827 25.9035C4.79612 26.6065 5.0913 26.894 5.0913 26.894C7.87987 29.785 10.13 29.5846 10.8331 29.0068L11.8173 28.1978C12.1688 27.9089 12.1837 27.4254 11.9237 27.1091L10.1901 25V25ZM3.02202 19.2888L3.90079 18.5665L5.66322 20.7107L4.78445 21.433L3.02202 19.2888ZM10.2075 28.4607C9.73421 28.6731 8.03779 28.8306 5.68886 26.4028C5.68886 26.4028 5.45147 26.1856 4.81584 25.4123C4.18021 24.639 4.042 24.3992 4.042 24.3992C2.05709 21.5544 2.59782 19.9909 2.86891 19.5325L4.60244 21.6415C4.06266 22.203 4.59284 23.063 4.8755 23.4785C5.32526 24.169 5.90311 24.872 6.52236 25.4821C7.1994 26.1625 7.84755 26.8077 8.5029 26.3869L10.2075 28.4607ZM10.4184 28.2874L8.7138 26.2135L9.59257 25.4912C9.59257 25.4912 10.7194 26.8621 11.2972 27.5651L10.4184 28.2874Z" fill="black"/>
<circle cx="15.3005" cy="13.3584" r="3.4424" fill="white" stroke="black"/>
<path d="M20.5968 23.8627H21.0968V23.3627C21.0968 20.1615 18.5017 17.5664 15.3005 17.5664C12.0992 17.5664 9.50415 20.1615 9.50415 23.3627V23.8627H10.0042H10.0196H10.035H10.0503H10.0656H10.0808H10.0958H10.1108H10.1258H10.1406H10.1554H10.1701H10.1847H10.1993H10.2138H10.2282H10.2425H10.2568H10.271H10.2851H10.2991H10.3131H10.3269H10.3408H10.3545H10.3682H10.3818H10.3953H10.4088H10.4222H10.4355H10.4488H10.4619H10.4751H10.4881H10.5011H10.514H10.5268H10.5396H10.5523H10.565H10.5776H10.5901H10.6025H10.6149H10.6272H10.6395H10.6517H10.6638H10.6758H10.6878H10.6998H10.7116H10.7234H10.7352H10.7469H10.7585H10.7701H10.7816H10.793H10.8044H10.8157H10.827H10.8382H10.8493H10.8604H10.8714H10.8824H10.8933H10.9042H10.9149H10.9257H10.9364H10.947H10.9576H10.9681H10.9786H10.989H10.9993H11.0096H11.0199H11.03H11.0402H11.0503H11.0603H11.0703H11.0802H11.0901H11.0999H11.1097H11.1194H11.1291H11.1387H11.1483H11.1578H11.1673H11.1767H11.1861H11.1955H11.2047H11.214H11.2232H11.2323H11.2414H11.2505H11.2595H11.2684H11.2774H11.2862H11.2951H11.3038H11.3126H11.3213H11.3299H11.3386H11.3471H11.3556H11.3641H11.3726H11.381H11.3893H11.3977H11.4059H11.4142H11.4224H11.4305H11.4387H11.4468H11.4548H11.4628H11.4708H11.4787H11.4866H11.4945H11.5023H11.5101H11.5178H11.5255H11.5332H11.5409H11.5485H11.5561H11.5636H11.5711H11.5786H11.586H11.5934H11.6008H11.6082H11.6155H11.6228H11.63H11.6373H11.6445H11.6516H11.6587H11.6659H11.6729H11.68H11.687H11.694H11.7009H11.7079H11.7148H11.7217H11.7285H11.7354H11.7422H11.7489H11.7557H11.7624H11.7691H11.7758H11.7825H11.7891H11.7957H11.8023H11.8089H11.8154H11.8219H11.8284H11.8349H11.8414H11.8478H11.8542H11.8606H11.867H11.8733H11.8797H11.886H11.8923H11.8986H11.9048H11.9111H11.9173H11.9235H11.9297H11.9359H11.9421H11.9482H11.9544H11.9605H11.9666H11.9727H11.9788H11.9848H11.9909H11.9969H12.0029H12.0089H12.0149H12.0209H12.0269H12.0329H12.0388H12.0448H12.0507H12.0566H12.0626H12.0685H12.0744H12.0803H12.0861H12.092H12.0979H12.1037H12.1096H12.1154H12.1213H12.1271H12.133H12.1388H12.1446H12.1504H12.1562H12.162H12.1678H12.1736H12.1794H12.1852H12.191H12.1968H12.2026H12.2084H12.2142H12.22H12.2257H12.2315H12.2373H12.2431H12.2489H12.2547H12.2605H12.2663H12.2721H12.2778H12.2836H12.2895H12.2953H12.3011H12.3069H12.3127H12.3185H12.3244H12.3302H12.336H12.3419H12.3477H12.3536H12.3594H12.3653H12.3712H12.3771H12.383H12.3889H12.3948H12.4007H12.4067H12.4126H12.4186H12.4245H12.4305H12.4365H12.4425H12.4485H12.4545H12.4605H12.4666H12.4727H12.4787H12.4848H12.4909H12.497H12.5032H12.5093H12.5155H12.5216H12.5278H12.5341H12.5403H12.5465H12.5528H12.5591H12.5654H12.5717H12.578H12.5844H12.5907H12.5971H12.6035H12.61H12.6164H12.6229H12.6294H12.6359H12.6424H12.649H12.6556H12.6622H12.6688H12.6754H12.6821H12.6888H12.6955H12.7023H12.709H12.7158H12.7227H12.7295H12.7364H12.7433H12.7502H12.7572H12.7642H12.7712H12.7782H12.7853H12.7924H12.7995H12.8067H12.8138H12.8211H12.8283H12.8356H12.8429H12.8502H12.8576H12.865H12.8724H12.8799H12.8874H12.8949H12.9025H12.9101H12.9178H12.9254H12.9331H12.9409H12.9487H12.9565H12.9643H12.9722H12.9801H12.9881H12.9961H13.0041H13.0122H13.0203H13.0285H13.0366H13.0449H13.0531H13.0615H13.0698H13.0782H13.0866H13.0951H13.1036H13.1122H13.1208H13.1294H13.1381H13.1468H13.1556H13.1644H13.1733H13.1822H13.1911H13.2001H13.2092H13.2183H13.2274H13.2366H13.2458H13.2551H13.2644H13.2738H13.2832H13.2926H13.3022H13.3117H13.3213H13.331H13.3407H13.3505H13.3603H13.3702H13.3801H13.39H13.4001H13.4101H13.4203H13.4304H13.4407H13.4509H13.4613H13.4717H13.4821H13.4926H13.5032H13.5138H13.5245H13.5352H13.546H13.5568H13.5677H13.5787H13.5897H13.6007H13.6119H13.6231H13.6343H13.6456H13.657H13.6684H13.6799H13.6914H13.703H13.7147H13.7264H13.7382H13.7501H13.762H13.774H13.786H13.7981H13.8103H13.8225H13.8348H13.8472H13.8596H13.8721H13.8847H13.8973H13.91H13.9227H13.9356H13.9485H13.9614H13.9744H13.9875H14.0007H14.0139H14.0273H14.0406H14.0541H14.0676H14.0812H14.0948H14.1086H14.1224H14.1362H14.1502H14.1642H14.1783H14.1924H14.2067H14.221H14.2354H14.2498H14.2644H14.279H14.2936H14.3084H14.3232H14.3382H14.3531H14.3682H14.3834H14.3986H14.4139H14.4292H14.4447H14.4602H14.4759H14.4915H14.5073H14.5232H14.5391H14.5551H14.5712H14.5874H14.6037H14.62H14.6364H14.6529H14.6695H14.6862H14.703H14.7198H14.7367H14.7537H14.7708H14.788H14.805H14.8221H14.8391H14.8561H14.873H14.8899H14.9068H14.9236H14.9404H14.9571H14.9739H14.9906H15.0072H15.0238H15.0404H15.0569H15.0734H15.0899H15.1063H15.1227H15.1391H15.1554H15.1717H15.188H15.2042H15.2204H15.2366H15.2527H15.2688H15.2848H15.3008H15.3168H15.3328H15.3487H15.3646H15.3804H15.3962H15.412H15.4278H15.4435H15.4592H15.4748H15.4904H15.506H15.5215H15.5371H15.5525H15.568H15.5834H15.5988H15.6141H15.6294H15.6447H15.66H15.6752H15.6904H15.7055H15.7207H15.7358H15.7508H15.7659H15.7808H15.7958H15.8107H15.8256H15.8405H15.8554H15.8702H15.8849H15.8997H15.9144H15.9291H15.9437H15.9584H15.973H15.9875H16.0021H16.0166H16.031H16.0455H16.0599H16.0743H16.0886H16.1029H16.1172H16.1315H16.1457H16.1599H16.1741H16.1882H16.2023H16.2164H16.2305H16.2445H16.2585H16.2725H16.2864H16.3003H16.3142H16.3281H16.3419H16.3557H16.3695H16.3832H16.3969H16.4106H16.4243H16.4379H16.4515H16.4651H16.4786H16.4921H16.5056H16.5191H16.5325H16.546H16.5593H16.5727H16.586H16.5993H16.6126H16.6259H16.6391H16.6523H16.6655H16.6786H16.6917H16.7048H16.7179H16.7309H16.7439H16.7569H16.7699H16.7828H16.7957H16.8086H16.8215H16.8343H16.8471H16.8599H16.8727H16.8854H16.8981H16.9108H16.9235H16.9361H16.9487H16.9613H16.9739H16.9864H16.9989H17.0114H17.0239H17.0363H17.0487H17.0611H17.0735H17.0859H17.0982H17.1105H17.1228H17.135H17.1472H17.1595H17.1716H17.1838H17.1959H17.2081H17.2202H17.2322H17.2443H17.2563H17.2683H17.2803H17.2923H17.3042H17.3161H17.328H17.3399H17.3517H17.3636H17.3754H17.3872H17.3989H17.4107H17.4224H17.4341H17.4458H17.4574H17.4691H17.4807H17.4923H17.5039H17.5154H17.5269H17.5385H17.55H17.5614H17.5729H17.5843H17.5957H17.6071H17.6185H17.6299H17.6412H17.6525H17.6638H17.6751H17.6864H17.6976H17.7088H17.72H17.7312H17.7424H17.7535H17.7646H17.7757H17.7868H17.7979H17.8089H17.82H17.831H17.842H17.853H17.8639H17.8749H17.8858H17.8967H17.9076H17.9185H17.9293H17.9402H17.951H17.9618H17.9726H17.9834H17.9941H18.0048H18.0156H18.0263H18.037H18.0476H18.0583H18.0689H18.0795H18.0901H18.1007H18.1113H18.1219H18.1324H18.1429H18.1534H18.1639H18.1744H18.1849H18.1953H18.2058H18.2162H18.2266H18.237H18.2473H18.2577H18.268H18.2784H18.2887H18.299H18.3093H18.3195H18.3298H18.34H18.3503H18.3605H18.3707H18.3809H18.391H18.4012H18.4114H18.4215H18.4316H18.4417H18.4518H18.4619H18.472H18.482H18.4921H18.5021H18.5121H18.5221H18.5321H18.5421H18.552H18.562H18.5719H18.5819H18.5918H18.6017H18.6116H18.6215H18.6313H18.6412H18.651H18.6609H18.6707H18.6805H18.6903H18.7001H18.7099H18.7197H18.7294H18.7392H18.7489H18.7586H18.7683H18.7781H18.7877H18.7974H18.8071H18.8168H18.8264H18.8361H18.8457H18.8553H18.865H18.8746H18.8842H18.8937H18.9033H18.9129H18.9225H18.932H18.9415H18.9511H18.9606H18.9701H18.9796H18.9891H18.9986H19.0081H19.0176H19.027H19.0365H19.0459H19.0554H19.0648H19.0742H19.0837H19.0931H19.1025H19.1119H19.1213H19.1306H19.14H19.1494H19.1587H19.1681H19.1774H19.1868H19.1961H19.2054H19.2148H19.2241H19.2334H19.2427H19.252H19.2613H19.2705H19.2798H19.2891H19.2983H19.3076H19.3169H19.3261H19.3354H19.3446H19.3538H19.363H19.3723H19.3815H19.3907H19.3999H19.4091H19.4183H19.4275H19.4367H19.4459H19.4551H19.4642H19.4734H19.4826H19.4917H19.5009H19.51H19.5192H19.5283H19.5375H19.5466H19.5558H19.5649H19.574H19.5832H19.5923H19.6014H19.6105H19.6196H19.6288H19.6379H19.647H19.6561H19.6652H19.6743H19.6834H19.6925H19.7016H19.7107H19.7198H19.7289H19.738H19.747H19.7561H19.7652H19.7743H19.7834H19.7924H19.8015H19.8106H19.8197H19.8288H19.8378H19.8469H19.856H19.8651H19.8741H19.8832H19.8923H19.9013H19.9104H19.9195H19.9286H19.9376H19.9467H19.9558H19.9649H19.9739H19.983H19.9921H20.0012H20.0102H20.0193H20.0284H20.0375H20.0465H20.0556H20.0647H20.0738H20.0829H20.092H20.1011H20.1102H20.1193H20.1283H20.1374H20.1465H20.1556H20.1648H20.1739H20.183H20.1921H20.2012H20.2103H20.2194H20.2285H20.2377H20.2468H20.2559H20.2651H20.2742H20.2833H20.2925H20.3016H20.3108H20.32H20.3291H20.3383H20.3474H20.3566H20.3658H20.375H20.3842H20.3933H20.4025H20.4117H20.4209H20.4301H20.4394H20.4486H20.4578H20.467H20.4763H20.4855H20.4947H20.504H20.5132H20.5225H20.5318H20.541H20.5503H20.5596H20.5689H20.5782H20.5875H20.5968Z" fill="white" stroke="black"/>
<path d="M16.0791 18.0664L16.5304 21.9174L15.3269 22.8802L14.1235 21.9174L14.5748 18.0664H16.0791Z" fill="#EF3829"/>
</svg>
