<svg viewBox="0 0 20 22" fill="none" xmlns="http://www.w3.org/2000/svg">
<g opacity="0.8">
<path d="M10.25 11L11 17.4L9 19L7 17.4L7.75 11H10.25Z" fill="#EF3829"/>
<path d="M12.2523 10.455C13.7455 9.41975 14.7273 7.6875 14.7273 5.74C14.7273 2.57275 12.1602 0 9 0C5.83977 0 3.27273 2.57275 3.27273 5.74C3.27273 7.69775 4.25455 9.41975 5.74773 10.455C2.39318 11.767 0 15.0368 0 18.86V21C0 22 0 22 2.5 22H4H4.90909C5.5 22 5.37955 22 6.95455 22C7.75227 22 8.18182 22 9 22C9.81818 22 10.7023 22 11.5 22C13.075 22 12.5 22 13.0909 22H14H15C18 22 18 22 18 21V18.86C18 15.0368 15.6068 11.767 12.2523 10.455ZM4.90909 5.74C4.90909 3.47475 6.73977 1.64 9 1.64C11.2602 1.64 13.0909 3.47475 13.0909 5.74C13.0909 8.00525 11.2602 9.84 9 9.84C6.73977 9.84 4.90909 8.00525 4.90909 5.74ZM16.3636 20C15.5 20 15.9 20 15 20H14.5H13H12.2727H12C12 20 12.175 20 11.5 20C10.825 20 11.0455 20 10.5 20H9.81818H8.18182H7.5C7.5 20 7.62955 20 6.95455 20C6.27955 20 6 20 5.72727 20H4.09091H3.27273H2.5C1.6 20 2 20 1.63636 20V18.86C1.63636 14.7908 4.93977 11.48 9 11.48C13.0602 11.48 16.3636 14.7908 16.3636 18.86V20Z" fill="black"/>
</g>
</svg>
