<svg width="30" height="30" viewBox="0 0 30 30" fill="none" xmlns="http://www.w3.org/2000/svg">
<g clip-path="url(#clip0)">
<path d="M12 24.5L7 21.5V25L15 29L22.5 25V21.5L18 24.5L15 22.5L12 24.5Z" fill="#FF0000"/>
<path d="M26.1291 16.9392C26.1312 16.7627 26.0367 16.5992 25.8824 16.5125L18.1405 12.1576C17.9959 12.0768 17.821 12.0749 17.6746 12.1529L15 13.5861L12.3257 12.1534C12.1793 12.0754 12.004 12.0768 11.8598 12.1581L4.1179 16.5129C3.96362 16.5992 3.86911 16.7631 3.871 16.9392C3.87313 17.1154 3.9707 17.2775 4.12617 17.3607L6.03991 18.3861L4.12617 19.4114C3.9707 19.4946 3.87313 19.6562 3.871 19.8329C3.86911 20.0094 3.96362 20.1729 4.1179 20.2596L6.77423 21.7538V25.1602C6.77423 25.3348 6.86873 25.496 7.02112 25.5822L14.7631 29.9371C14.8365 29.9782 14.9183 29.999 15 29.999C15.0818 29.999 15.1633 29.9772 15.2368 29.9361L15.2372 29.9371L22.9792 25.5822C23.1316 25.496 23.2258 25.3348 23.2258 25.1602V21.7538L25.8824 20.2596C26.0362 20.1729 26.1312 20.0094 26.1291 19.8329C26.1272 19.6562 26.0294 19.4946 25.8741 19.4114L23.9604 18.3861L25.8741 17.3607C26.0294 17.2775 26.1272 17.1159 26.1291 16.9392ZM14.5162 20.5224L13.3263 21.1915L8.08951 18.3861L14.5162 14.9427V20.5224ZM15 21.3604L15.6625 21.733L15 22.0881L14.3378 21.733L15 21.3604ZM16.6737 21.1915L15.4839 20.5224V14.9427L21.9108 18.3861L16.6737 21.1915ZM5.36041 16.9243L12.1027 13.1318L13.9758 14.1352L7.0646 17.837L5.36041 16.9243ZM7.0646 18.9351L13.9754 22.6374L12.1022 23.6408L5.35994 19.8483L7.0646 18.9351ZM7.74197 24.8772V22.2981L11.8598 24.6145C11.9333 24.6556 12.0151 24.6764 12.0968 24.6764C12.1752 24.6764 12.2537 24.657 12.3257 24.6187L14.5162 23.4454V28.6877L7.74197 24.8772ZM22.2581 24.8772L15.4839 28.6877V23.4454L17.6746 24.6187C17.7466 24.657 17.8251 24.6764 17.9033 24.6764C17.985 24.6764 18.067 24.6556 18.1405 24.6145L22.2581 22.2981V24.8772ZM24.6399 19.8478L17.8976 23.6404L16.0245 22.6369L22.9357 18.9351L24.6399 19.8478ZM22.9357 17.837L16.025 14.1347L17.8981 13.1313L24.6404 16.9238L22.9357 17.837Z" fill="black"/>
<path d="M25.2812 6L26.2188 8.34375H28.0938L26.5783 9.58688L27.3794 12.0938L25.2812 10.5445L23.1831 12.0938L23.9842 9.58688L22 8.34375H24.3438L25.2812 6Z" stroke="black"/>
<path d="M15.3077 1L16.5385 4.07692H19L17.0105 5.70892L18.0622 9L15.3077 6.96615L12.5532 9L13.6049 5.70892L11 4.07692H14.0769L15.3077 1Z" stroke="black"/>
<path d="M4.8125 6L5.75 8.34375H8.09375L6.10953 9.58688L6.91062 12.0938L4.8125 10.5445L2.71438 12.0938L3.51547 9.58688L2 8.34375H3.875L4.8125 6Z" stroke="black"/>
</g>
<defs>
<clipPath id="clip0">
<path d="M0 0H30V30H0V0Z" fill="white"/>
</clipPath>
</defs>
</svg>
