<svg width="30" height="31" viewBox="0 0 30 31" fill="none" xmlns="http://www.w3.org/2000/svg">
<path d="M22.081 21.1664L19.1442 23.1086C18.7728 22.473 18.074 22.0498 17.2953 22.0498H14.7019C14.1435 22.0498 13.8819 21.6444 13.6199 21.456C11.6153 19.718 8.59196 19.718 6.58834 21.455L6.02209 21.9432H0.532744C0.238486 21.9432 0 22.1817 0 22.4759V28.8687C0 29.1629 0.238486 29.4014 0.532744 29.4014H6.06371L15.6094 30.9924C15.7501 31.0159 15.8947 30.982 16.0106 30.8975L27.0576 22.8485C27.2944 22.6757 27.3473 22.344 27.1758 22.1061C26.0062 20.4846 23.77 20.0707 22.081 21.1664ZM15.564 29.9046L6.19544 28.3432C6.16651 28.3384 6.13717 28.3359 6.10783 28.3359H1.06549V23.0087H6.22021C6.54339 23.0087 6.63537 22.7794 7.28528 22.261C8.89183 20.8679 11.3152 20.8679 12.922 22.2612C13.1457 22.4119 13.6691 23.1152 14.7019 23.1152H17.2953C17.8736 23.1152 18.3607 23.5731 18.3607 24.1514C18.3607 24.7258 17.8827 25.1929 17.2953 25.1929H10.9023C10.6083 25.1929 10.3696 25.4314 10.3696 25.7257C10.3696 26.0197 10.6083 26.2584 10.9023 26.2584H17.2953C18.4538 26.2584 19.3996 25.3392 19.4256 24.1997L22.6647 22.0577C23.7198 21.3732 25.075 21.5116 25.959 22.3305L15.564 29.9046Z" fill="#020202"/>
<path d="M24.9714 15.8706H24.0286V10.842H24.6572C24.9113 10.842 25.1405 10.6889 25.2379 10.454C25.3351 10.2191 25.2815 9.94881 25.1017 9.76883L19.4446 4.11169C19.3218 3.98912 19.1609 3.92773 19 3.92773C18.8391 3.92773 18.6782 3.98912 18.5556 4.11191L16.8 5.86729V5.18488C16.8 4.83769 16.5186 4.55631 16.1714 4.55631H15.5429C15.1957 4.55631 14.9143 4.83769 14.9143 5.18488V7.75301L12.8985 9.76883C12.7187 9.94861 12.6648 10.2189 12.7623 10.454C12.8595 10.6889 13.0887 10.842 13.3429 10.842H13.9714V15.8706H13.0286C12.8549 15.8706 12.7143 16.0112 12.7143 16.1849C12.7143 16.3586 12.8549 16.4992 13.0286 16.4992H24.9714C25.1451 16.4992 25.2857 16.3586 25.2857 16.1849C25.2857 16.0112 25.1451 15.8706 24.9714 15.8706ZM15.5429 5.18488H16.1714V6.49587L15.5429 7.12444V5.18488ZM23.4 15.8706H20.5714H20.3086C20.1151 15.8706 20.2901 15.8707 19.9429 15.8707L18.2748 15.8706C17.9276 15.8706 17.6501 15.8706 17.4286 15.8707L14.6 15.8706V10.2134H13.3429L19 4.55631L24.6572 10.2134H23.4V15.8706Z" fill="black"/>
<path d="M20.2571 15.9629H20.5071V15.7129V11.7843C20.5071 10.7784 19.6917 9.96289 18.6857 9.96289C17.6798 9.96289 16.8643 10.7784 16.8643 11.7843V15.7129V15.9629H17.1143H20.2571Z" fill="#EF3829" stroke="black" stroke-width="0.5"/>
<path d="M12.1406 9.39639L11.7722 8.78248L10.8021 9.36454C11.8166 5.23608 15.5291 2.2882 19.8316 2.2882C20.7719 2.2882 21.6998 2.42781 22.5894 2.70345L22.8013 2.01973C21.843 1.72261 20.8439 1.57227 19.8316 1.57227C15.1543 1.57227 11.1254 4.80759 10.078 9.32051L9.39962 8.18968L8.78571 8.55803L10.044 10.6547L12.1406 9.39639Z" fill="black"/>
<path d="M26.0587 13.1407L26.4271 13.7546L27.3972 13.1726C26.3827 17.301 22.6702 20.2489 18.3678 20.2489C17.4274 20.2489 16.4995 20.1093 15.61 19.8337L15.398 20.5174C16.3563 20.8145 17.3554 20.9648 18.3678 20.9648C23.045 20.9648 27.0739 17.7295 28.1213 13.2166L28.7997 14.3474L29.4136 13.9791L28.1553 11.8825L26.0587 13.1407Z" fill="black"/>
</svg>
