<svg width="30" height="30" viewBox="0 0 30 30" fill="none" xmlns="http://www.w3.org/2000/svg">
<path d="M23 10C23 14.4183 18 18 15 21C11.5 17.5 7 14.4183 7 10C7 5.58172 10.5817 2 15 2C19.4183 2 23 5.58172 23 10Z" fill="#FF0000"/>
<circle cx="15" cy="9" r="5" fill="white"/>
<path d="M20.7435 15.2583L20.7435 15.2583L15.0127 21.2633L9.2818 15.2584C9.28179 15.2583 9.28178 15.2583 9.28177 15.2583C8.41897 14.3541 7.79464 13.377 7.41568 12.357L7.41569 12.357L7.4147 12.3544C7.02786 11.3307 6.86385 10.2362 6.93387 9.14403C7.07226 7.12116 7.94557 5.21839 9.38961 3.79476C12.5136 0.734626 17.5112 0.734621 20.6354 3.79481C22.0793 5.21852 22.9528 7.12133 23.0909 9.14416C23.1611 10.2363 22.9971 11.3307 22.6103 12.3544L22.6092 12.3572C22.2308 13.3773 21.6068 14.3541 20.7435 15.2583ZM19.9582 8.96523C19.9582 6.2204 17.7442 3.98039 15.013 3.98039C12.2815 3.98039 10.0678 6.22015 10.0678 8.96523C10.0678 11.71 12.2815 13.9501 15.013 13.9501C17.7442 13.9501 19.9582 11.7101 19.9582 8.96523Z" stroke="black" stroke-width="0.999328"/>
<path d="M15.778 25.9629L15.7781 25.9628L21.6556 19.8044H25.0777L29.1357 28.4997H0.603029L4.66103 19.8044H8.37138L14.2487 25.9628L14.2487 25.9629C14.448 26.1716 14.7242 26.2902 15.0135 26.2902C15.3027 26.2902 15.5789 26.1715 15.778 25.9629Z" stroke="black" stroke-width="0.999328"/>
</svg>
