<svg width="24" height="24" viewBox="0 0 24 24" fill="none" xmlns="http://www.w3.org/2000/svg">
<path d="M21.6815 4H2.31847C2.14437 4 2 4.14437 2 4.31847V16.7813C2 16.9554 2.14437 17.0998 2.31847 17.0998H10.5V18.1401H8.61571C8.61571 18.3618 8.61571 18.4308 8.61571 18.6049C8.61571 18.779 8.61571 18.798 8.61571 19H15.38C15.38 18.7908 15.38 18.7451 15.38 18.571C15.38 18.3969 15.38 18.4548 15.38 18.1401H13.5V17.0998H21.6773C21.8514 17.0998 21.9958 16.9554 21.9958 16.7813V4.31847C22 4.14437 21.8556 4 21.6815 4ZM21 5V14.5H3V5H21ZM12.5 18.1401H11.5V17.0998H12.5V18.1401ZM3 16.2V15.5H21V16.2H3Z" fill="#585858"/>
</svg>
