<svg width="28" height="28" viewBox="0 0 28 28" fill="none" xmlns="http://www.w3.org/2000/svg">
<g clip-path="url(#clip0)">
<path d="M7.49025 17.622C7.75172 17.4712 7.84123 17.1364 7.69041 16.8749C7.53938 16.6137 7.20485 16.5239 6.94337 16.6748C6.6819 16.8258 6.59218 17.1606 6.74321 17.4218C6.89403 17.6833 7.22877 17.773 7.49025 17.622V17.622Z" fill="black"/>
<path d="M14.5 2.5L14 4L21 15.5H22L22.5 14.5L15.5 2.5H14.5Z" fill="#FF0000"/>
<path d="M9.99999 18L6.99999 12.5C5.66666 13.1667 2.69999 14.7 1.49999 15.5C0.299993 16.3 0.66666 18.5 0.999993 19.5L3.99999 21L9.99999 18Z" fill="#FF0000"/>
<path d="M5.24914 21.3968L8.00317 26.1672C8.59746 27.1977 9.93432 27.5793 10.9915 26.9681C12.0376 26.3635 12.3972 25.0269 11.792 23.9799L10.1514 21.1379L11.5722 20.3176C11.8336 20.1663 11.9234 19.832 11.7723 19.5705L11.0612 18.3388C11.146 18.3223 11.7035 18.213 21.536 16.2841C22.7515 16.2181 23.4797 14.8888 22.8658 13.826L21.0483 10.678L22.2097 8.91885C22.3238 8.74582 22.3306 8.52344 22.227 8.34399L21.1333 6.44958C21.0297 6.27014 20.8329 6.16504 20.6268 6.17722L18.5228 6.30347L16.5051 2.80859C16.2129 2.30231 15.6893 1.99576 15.1048 1.98849C15.0978 1.98828 15.091 1.98828 15.0839 1.98828C14.5191 1.98828 14.0064 2.26941 13.7026 2.74472L6.55865 11.8455L1.91427 14.5269C0.0875767 15.5811 -0.545175 17.9246 0.513114 19.7562C1.47997 21.431 3.51836 22.0898 5.24914 21.3968ZM10.845 24.527C11.1471 25.0495 10.9683 25.7182 10.4442 26.0209C9.91851 26.3249 9.24901 26.1382 8.95037 25.6205L6.21599 20.8839L8.1104 19.7901C11.275 25.2721 10.7941 24.4392 10.845 24.527ZM9.60448 20.1905L9.05761 19.2433L10.0048 18.6964L10.5517 19.6436L9.60448 20.1905ZM20.3551 7.28912L21.1109 8.59821L20.4369 9.6189L19.1342 7.3624L20.3551 7.28912ZM14.6174 3.34436C14.7641 3.10425 14.997 3.07947 15.0914 3.08203C15.1847 3.0831 15.4174 3.11215 15.5577 3.35526L21.9186 14.3729C22.1258 14.7315 21.8739 15.1825 21.4584 15.1927C21.3839 15.1945 21.3495 15.2079 21.1585 15.2436L14.43 3.58939C14.5712 3.40781 14.5894 3.39029 14.6174 3.34436ZM13.7022 4.51651L20.0239 15.4662L10.4831 17.3375L7.58211 12.3129L13.7022 4.51651ZM1.46032 19.2093C1.22021 18.7938 1.09331 18.3221 1.09331 17.8449C1.09331 16.8695 1.61754 15.9612 2.46114 15.4741L6.72356 13.0132L9.45794 17.7492L5.19552 20.2103C3.88964 20.964 2.21419 20.515 1.46032 19.2093Z" fill="black"/>
<path d="M5.796 17.9688C5.64497 17.7073 5.31044 17.6176 5.04896 17.7687L4.10176 18.3155C3.84071 18.4664 3.50554 18.3764 3.35472 18.1154C3.20369 17.8539 2.86915 17.7642 2.60768 17.9152C2.3462 18.0662 2.25648 18.4008 2.40751 18.6623C2.85762 19.442 3.86165 19.7169 4.64863 19.2628L5.59584 18.7159C5.85731 18.5648 5.94703 18.2305 5.796 17.9688V17.9688Z" fill="black"/>
<path d="M27.1871 3.15903L24.1398 4.85477C23.876 5.00174 23.7809 5.33478 23.9279 5.59861C24.0745 5.86222 24.4073 5.95771 24.6717 5.81052L27.7189 4.11478C27.9829 3.96781 28.0777 3.63477 27.9308 3.37094C27.784 3.10691 27.451 3.01206 27.1871 3.15903V3.15903Z" fill="black"/>
<path d="M26.8676 8.82317L24.7547 8.25706C24.4629 8.17888 24.1629 8.35191 24.0847 8.64372C24.0066 8.93553 24.1798 9.23524 24.4716 9.31343L26.5848 9.87953C26.8783 9.95836 27.1767 9.78255 27.2545 9.49287C27.3327 9.20107 27.1594 8.90114 26.8676 8.82317Z" fill="black"/>
<path d="M21.5577 1.17106L20.991 3.28422C20.9128 3.57603 21.0859 3.87574 21.3777 3.95414C21.6693 4.03211 21.9692 3.85951 22.0476 3.56749L22.6141 1.45433C22.6923 1.16252 22.5193 0.862594 22.2275 0.784408C21.9359 0.706222 21.6359 0.879256 21.5577 1.17106V1.17106Z" fill="black"/>
</g>
<defs>
<clipPath id="clip0">
<path d="M0 0H28V28H0V0Z" fill="white"/>
</clipPath>
</defs>
</svg>
