<svg width="28" height="28" viewBox="0 0 28 28" fill="none" xmlns="http://www.w3.org/2000/svg">
<path d="M9.43547 21.2734V25.6928H5.01611V21.2734H9.43547Z" stroke="#B9BEC1"/>
<path d="M9.43547 14.9512V19.3705H5.01611V14.9512H9.43547Z" stroke="#B9BEC1"/>
<path d="M9.43547 8.62891V13.0483H5.01611V8.62891H9.43547Z" stroke="#B9BEC1"/>
<path d="M25.7419 21.2258H25.2072C25.2578 21.084 25.2903 20.9332 25.2903 20.7742C25.2903 20.0272 24.6825 19.4194 23.9355 19.4194H20.7742V5.87097C20.7742 4.62587 19.7612 3.6129 18.5161 3.6129H15.4817L15.2559 2.70968H12.6452V2.25806C12.6452 1.01297 11.6322 0 10.3871 0C9.142 0 8.12903 1.01297 8.12903 2.25806V2.70968H5.51826L5.29245 3.6129H2.25806C1.01297 3.6129 0 4.62587 0 5.87097V25.7419C0 26.987 1.01297 28 2.25806 28H18.5161C19.7612 28 20.7742 26.987 20.7742 25.7419H25.7419C26.987 25.7419 28 24.729 28 23.4839C28 22.2388 26.987 21.2258 25.7419 21.2258ZM24.3871 20.7742C24.3871 21.0235 24.1843 21.2258 23.9355 21.2258H15.8065C15.5576 21.2258 15.3548 21.0235 15.3548 20.7742C15.3548 20.5249 15.5576 20.3226 15.8065 20.3226H23.9355C24.1843 20.3226 24.3871 20.5249 24.3871 20.7742ZM10.3871 24.8387C9.64013 24.8387 9.03226 24.2308 9.03226 23.4839C9.03226 22.7369 9.64013 22.129 10.3871 22.129H15.8065H22.5806V24.8387H10.3871ZM8.1629 23.8172L7.322 23.6072C7.2651 23.5927 7.22581 23.5421 7.22581 23.4839C7.22581 23.4256 7.2651 23.375 7.322 23.361L8.1629 23.151C8.14619 23.2603 8.12903 23.3696 8.12903 23.4839C8.12903 23.5981 8.14619 23.7074 8.1629 23.8172ZM9.03226 2.25806C9.03226 1.5111 9.64013 0.903226 10.3871 0.903226C11.1341 0.903226 11.7419 1.5111 11.7419 2.25806V2.70968H9.03226V2.25806ZM6.22368 3.6129H14.5505L15.2279 6.32258H5.54626L6.22368 3.6129ZM16.385 7.22581L16.1592 6.32258H18.0645V17.6129H18.9677V5.41935H15.9334L15.7075 4.51613H18.5161C19.2631 4.51613 19.871 5.124 19.871 5.87097V19.4194H18.9677V18.5161H18.0645V19.4194H15.8065C15.0595 19.4194 14.4516 20.0272 14.4516 20.7742C14.4516 20.9332 14.4841 21.084 14.5347 21.2258H10.3871C9.65232 21.2258 9.00471 21.5839 8.59239 22.129H8.58064L7.10297 22.4849C6.64323 22.5996 6.32258 23.0106 6.32258 23.4839C6.32258 23.9572 6.64323 24.3681 7.10297 24.4828L8.47135 24.8252L8.58335 24.8279C8.99523 25.3793 9.64735 25.7419 10.3871 25.7419H18.0645V27.0968H2.70968V6.32258H4.61503L4.38923 7.22581H16.385ZM0.903226 25.7419V5.87097C0.903226 5.124 1.5111 4.51613 2.25806 4.51613H5.06664L4.84084 5.41935H1.80645V27.0137C1.28213 26.8267 0.903226 26.3299 0.903226 25.7419ZM18.9677 27.0137V25.7419H19.871C19.871 26.3299 19.4921 26.8267 18.9677 27.0137ZM25.7419 24.8387H23.4839V22.129H23.9355H25.7419C26.4889 22.129 27.0968 22.7369 27.0968 23.4839C27.0968 24.2308 26.4889 24.8387 25.7419 24.8387Z" fill="#B9BEC1"/>
<path d="M11.1097 15.7167L10.5678 14.9941L7.26827 17.469L6.64188 16.8426L6.0033 17.4812L7.18336 18.6612L11.1097 15.7167Z" fill="#B9BEC1"/>
<path d="M11.1097 9.39445L10.5678 8.67188L7.26827 11.1467L6.64188 10.5203L6.0033 11.1589L7.18336 12.339L11.1097 9.39445Z" fill="#B9BEC1"/>
<path d="M16.258 8.58008H12.6451V9.4833H16.258V8.58008Z" fill="#B9BEC1"/>
<path d="M16.258 10.3867H12.6451V11.2899H16.258V10.3867Z" fill="#B9BEC1"/>
<path d="M16.258 12.1934H12.6451V13.0966H16.258V12.1934Z" fill="#B9BEC1"/>
<path d="M16.258 14.9023H12.6451V15.8056H16.258V14.9023Z" fill="#B9BEC1"/>
<path d="M16.258 16.709H12.6451V17.6122H16.258V16.709Z" fill="#B9BEC1"/>
<path d="M13.5484 18.5156H12.6451V19.4188H13.5484V18.5156Z" fill="#B9BEC1"/>
<path d="M8.12906 4.51562H7.22583V5.41885H8.12906V4.51562Z" fill="#B9BEC1"/>
<path d="M13.5484 4.51562H12.6451V5.41885H13.5484V4.51562Z" fill="#B9BEC1"/>
</svg>
