<svg width="24" height="24" viewBox="0 0 24 24" fill="none" xmlns="http://www.w3.org/2000/svg">
<path d="M12.8619 18.1619C12.8619 18.6056 12.488 18.9999 12.0674 18.9999C11.6467 18.9999 11.2728 18.6056 11.2728 18.1619C11.2728 17.7182 11.6467 17.3239 12.0674 17.3239C12.5348 17.3239 12.8619 17.669 12.8619 18.1619Z" fill="#585858"/>
<path d="M8.79537 16.1408C8.70189 16.1408 8.60842 16.0915 8.56168 16.0422C8.37473 15.8943 8.28123 15.5986 8.42144 15.3521C9.26273 14.0211 10.6182 13.2817 12.1138 13.2817C13.6094 13.2817 14.9649 14.0704 15.8062 15.3521C15.9464 15.5986 15.8996 15.8943 15.6659 16.0422C15.4322 16.1901 15.1518 16.1408 15.0116 15.8943C14.3573 14.8591 13.2823 14.2183 12.1138 14.2183C10.9453 14.2183 9.87034 14.8591 9.216 15.8943C9.07579 16.0422 8.93559 16.1408 8.79537 16.1408Z" fill="#585858"/>
<path d="M18.0031 13.0351C17.8629 13.0351 17.7695 12.9859 17.676 12.8873C16.2738 11.1619 14.2173 10.176 12.0673 10.176C9.91738 10.176 7.86088 11.1619 6.45872 12.8873C6.31851 13.0844 5.99133 13.1337 5.80437 12.9366C5.61742 12.7394 5.57069 12.4436 5.75765 12.2464C7.34676 10.3239 9.63695 9.19008 12.0673 9.19008C14.4978 9.19008 16.7879 10.3239 18.3771 12.2464C18.564 12.4436 18.5173 12.7394 18.3303 12.9366C18.2368 12.9859 18.1433 13.0351 18.0031 13.0351Z" fill="#585858"/>
<path d="M20.6672 9.92951C20.5269 9.92951 20.4335 9.88022 20.34 9.78162C18.1433 7.31684 15.2455 5.98585 12.0673 5.98585C8.88907 5.98585 5.94454 7.31684 3.79457 9.78162C3.60761 9.97881 3.32717 9.97881 3.14022 9.78162C2.95326 9.58444 2.95326 9.28867 3.14022 9.09149C5.47714 6.42951 8.65538 4.99993 12.0673 4.99993C15.4792 4.99993 18.6574 6.47881 20.9943 9.09149C21.1813 9.28867 21.1346 9.58444 20.9943 9.78162C20.9009 9.88022 20.8074 9.92951 20.6672 9.92951Z" fill="#585858"/>
<path fill-rule="evenodd" clip-rule="evenodd" d="M8.2242 15.2274C9.10742 13.8301 10.5366 13.0483 12.1138 13.0483C13.6951 13.0483 15.1208 13.8828 16.0012 15.224L16.0053 15.2302L16.009 15.2367C16.1983 15.5695 16.1498 16.0121 15.7907 16.2394C15.6283 16.3421 15.4383 16.383 15.2555 16.3445C15.0721 16.3058 14.9134 16.1905 14.8118 16.0149C14.1952 15.0423 13.1922 14.4516 12.1138 14.4516C11.0338 14.4516 10.0296 15.0439 9.41324 16.019L9.40104 16.0383L9.38533 16.0549C9.24058 16.2075 9.04042 16.3741 8.79537 16.3741C8.6395 16.3741 8.49333 16.3013 8.40514 16.2157C8.14886 16.0039 8.01648 15.5921 8.21863 15.2367L8.2242 15.2274ZM8.56168 16.0422C8.60842 16.0915 8.70189 16.1408 8.79537 16.1408C8.93559 16.1408 9.07579 16.0422 9.216 15.8943C9.87034 14.8591 10.9453 14.2183 12.1138 14.2183C13.2823 14.2183 14.3573 14.8591 15.0116 15.8943C15.1518 16.1408 15.4322 16.1901 15.6659 16.0422C15.8996 15.8943 15.9464 15.5986 15.8062 15.3521C14.9649 14.0704 13.6094 13.2817 12.1138 13.2817C10.6182 13.2817 9.26273 14.0211 8.42144 15.3521C8.28123 15.5986 8.37473 15.8943 8.56168 16.0422ZM17.5005 13.0413L17.4949 13.0344C16.1359 11.3622 14.1453 10.4093 12.0673 10.4093C9.99151 10.4093 8.0028 11.3603 6.6439 13.0294C6.42453 13.3286 5.93074 13.409 5.63505 13.0971C5.39359 12.8424 5.29094 12.4068 5.58242 12.0922C7.21272 10.123 9.56521 8.95674 12.0673 8.95674C14.5695 8.95674 16.922 10.123 18.5523 12.0922C18.8438 12.4068 18.7411 12.8424 18.4996 13.0971L18.4732 13.125L18.4327 13.1463C18.3381 13.1963 18.2014 13.2685 18.0031 13.2685C17.9041 13.2685 17.8111 13.2507 17.723 13.2094C17.6363 13.1688 17.5666 13.111 17.5066 13.0478L17.5005 13.0413ZM18.3771 12.2464C16.7879 10.3239 14.4978 9.19008 12.0673 9.19008C9.63695 9.19008 7.34676 10.3239 5.75765 12.2464C5.57069 12.4436 5.61742 12.7394 5.80437 12.9366C5.99133 13.1337 6.31851 13.0844 6.45872 12.8873C7.86088 11.1619 9.91738 10.176 12.0673 10.176C14.2173 10.176 16.2738 11.1619 17.676 12.8873C17.7695 12.9859 17.8629 13.0351 18.0031 13.0351C18.1433 13.0351 18.2368 12.9859 18.3303 12.9366C18.5173 12.7394 18.564 12.4436 18.3771 12.2464ZM20.1658 9.93687C18.0113 7.51948 15.176 6.21918 12.0673 6.21918C8.95714 6.21918 6.0765 7.52051 3.9704 9.935L3.96404 9.9423C3.68506 10.2365 3.24987 10.2364 2.97089 9.94217C2.6997 9.65614 2.6986 9.22171 2.96757 8.93447C5.34793 6.22471 8.58861 4.7666 12.0673 4.7666C15.5482 4.7666 18.7877 6.27566 21.1662 8.93364C21.457 9.24342 21.3595 9.67079 21.1845 9.91684L21.175 9.93024L21.1637 9.94217C21.1037 10.0054 21.034 10.0632 20.9473 10.1038C20.8592 10.1451 20.7661 10.1628 20.6672 10.1628C20.5682 10.1628 20.4751 10.1451 20.387 10.1038C20.3003 10.0632 20.2306 10.0054 20.1707 9.94217L20.1658 9.93687ZM20.9943 9.09149C18.6574 6.47881 15.4792 4.99993 12.0673 4.99993C8.65538 4.99993 5.47714 6.42951 3.14022 9.09149C2.95326 9.28867 2.95326 9.58444 3.14022 9.78162C3.32717 9.97881 3.60761 9.97881 3.79457 9.78162C5.94454 7.31684 8.88907 5.98585 12.0673 5.98585C15.2455 5.98585 18.1433 7.31684 20.34 9.78162C20.4335 9.88022 20.5269 9.92951 20.6672 9.92951C20.8074 9.92951 20.9009 9.88022 20.9943 9.78162C21.1346 9.58444 21.1813 9.28867 20.9943 9.09149ZM13.0952 18.1619C13.0952 18.7226 12.6284 19.2333 12.0674 19.2333C11.5063 19.2333 11.0395 18.7226 11.0395 18.1619C11.0395 17.6012 11.5063 17.0905 12.0674 17.0905C12.3609 17.0905 12.6222 17.2002 12.8092 17.3975C12.9955 17.5939 13.0952 17.8632 13.0952 18.1619ZM12.0674 18.9999C12.488 18.9999 12.8619 18.6056 12.8619 18.1619C12.8619 17.669 12.5348 17.3239 12.0674 17.3239C11.6467 17.3239 11.2728 17.7182 11.2728 18.1619C11.2728 18.6056 11.6467 18.9999 12.0674 18.9999Z" fill="#585858"/>
</svg>
