<svg width="30" height="30" viewBox="0 0 30 30" fill="none" xmlns="http://www.w3.org/2000/svg">
<path d="M12 24.5L7 21.5V25L15 29L22.5 25V21.5L18 24.5L15 22.5L12 24.5Z" fill="#FF0000"/>
<path d="M26.1291 16.9392C26.1312 16.7627 26.0367 16.5992 25.8824 16.5125L18.1405 12.1576C17.9959 12.0768 17.821 12.0749 17.6746 12.1529L15 13.5861L12.3257 12.1534C12.1793 12.0754 12.004 12.0768 11.8598 12.1581L4.1179 16.5129C3.96362 16.5992 3.86911 16.7631 3.871 16.9392C3.87313 17.1154 3.9707 17.2775 4.12617 17.3607L6.03991 18.3861L4.12617 19.4114C3.9707 19.4946 3.87313 19.6562 3.871 19.8329C3.86911 20.0094 3.96362 20.1729 4.1179 20.2596L6.77423 21.7538V25.1602C6.77423 25.3348 6.86873 25.496 7.02112 25.5822L14.7631 29.9371C14.8365 29.9782 14.9183 29.999 15 29.999C15.0818 29.999 15.1633 29.9772 15.2368 29.9361L15.2372 29.9371L22.9792 25.5822C23.1316 25.496 23.2258 25.3348 23.2258 25.1602V21.7538L25.8824 20.2596C26.0362 20.1729 26.1312 20.0094 26.1291 19.8329C26.1272 19.6562 26.0294 19.4946 25.8741 19.4114L23.9604 18.3861L25.8741 17.3607C26.0294 17.2775 26.1272 17.1159 26.1291 16.9392ZM14.5162 20.5224L13.3263 21.1915L8.08951 18.3861L14.5162 14.9427V20.5224ZM15 21.3604L15.6625 21.733L15 22.0881L14.3378 21.733L15 21.3604ZM16.6737 21.1915L15.4839 20.5224V14.9427L21.9108 18.3861L16.6737 21.1915ZM5.36041 16.9243L12.1027 13.1318L13.9758 14.1352L7.0646 17.837L5.36041 16.9243ZM7.0646 18.9351L13.9754 22.6374L12.1022 23.6408L5.35994 19.8483L7.0646 18.9351ZM7.74197 24.8772V22.2981L11.8598 24.6145C11.9333 24.6556 12.0151 24.6764 12.0968 24.6764C12.1752 24.6764 12.2537 24.657 12.3257 24.6187L14.5162 23.4454V28.6877L7.74197 24.8772ZM22.2581 24.8772L15.4839 28.6877V23.4454L17.6746 24.6187C17.7466 24.657 17.8251 24.6764 17.9033 24.6764C17.985 24.6764 18.067 24.6556 18.1405 24.6145L22.2581 22.2981V24.8772ZM24.6399 19.8478L17.8976 23.6404L16.0245 22.6369L22.9357 18.9351L24.6399 19.8478ZM22.9357 17.837L16.025 14.1347L17.8981 13.1313L24.6404 16.9238L22.9357 17.837Z" fill="black"/>
<path d="M15 8.22537C14.4663 8.22537 14.0323 7.79135 14.0323 7.25762H13.0645C13.0645 8.15661 13.6835 8.90817 14.5161 9.12435V10.1608H15.4839V9.12435C16.3167 8.90817 16.9355 8.15661 16.9355 7.25762C16.9355 6.19018 16.0674 5.32214 15 5.32214C14.4663 5.32214 14.0323 4.88812 14.0323 4.3544C14.0323 3.82067 14.4663 3.38666 15 3.38666C15.5337 3.38666 15.9677 3.82067 15.9677 4.3544H16.9355C16.9355 3.45541 16.3167 2.70385 15.4839 2.48767V1.45117H14.5161V2.48767C13.6835 2.70385 13.0645 3.45541 13.0645 4.3544C13.0645 5.42184 13.9326 6.28988 15 6.28988C15.5337 6.28988 15.9677 6.7239 15.9677 7.25762C15.9677 7.79135 15.5337 8.22537 15 8.22537Z" fill="black"/>
<path d="M15 11.6129C18.2019 11.6129 20.8064 9.00832 20.8064 5.80645C20.8064 2.60459 18.2019 0 15 0C11.7984 0 9.19354 2.60459 9.19354 5.80645C9.19354 9.00832 11.7984 11.6129 15 11.6129ZM15 0.967742C17.6681 0.967742 19.8387 3.13831 19.8387 5.80645C19.8387 8.47459 17.6681 10.6452 15 10.6452C12.3321 10.6452 10.1613 8.47459 10.1613 5.80645C10.1613 3.13831 12.3321 0.967742 15 0.967742Z" fill="black"/>
<path d="M27.0968 7.25876H25.6452V6.29102H24.6774V7.25876H23.7097C23.5143 7.25876 23.3371 7.37689 23.2627 7.5574C23.1878 7.73838 23.2294 7.94629 23.3676 8.08474L25.4451 10.162H23.2258V11.1297H24.6774V12.0975H25.6452V11.1297H26.6129C26.8086 11.1297 26.9855 11.0116 27.0602 10.8311C27.1351 10.6501 27.0935 10.4422 26.955 10.3037L24.8778 8.2265H27.0968V7.25876Z" fill="black"/>
<path d="M4.35481 12.0975H5.32255V11.1297H6.2903C6.48592 11.1297 6.66289 11.0116 6.73755 10.8311C6.81244 10.6501 6.77086 10.4422 6.63241 10.3037L4.55516 8.2265H6.77417V7.25876H5.32255V6.29102H4.35481V7.25876H3.38707C3.19168 7.25876 3.01448 7.37689 2.94006 7.5574C2.86516 7.73838 2.90674 7.94629 3.04496 8.08474L5.12244 10.162H2.9032V11.1297H4.35481V12.0975Z" fill="black"/>
</svg>
